M48
; DRILL file {KiCad (6.0.5)} date Thu Jun  2 02:11:43 2022
; FORMAT={-:-/ absolute / inch / decimal}
; #@! TF.CreationDate,2022-06-02T02:11:43+02:00
; #@! TF.GenerationSoftware,Kicad,Pcbnew,(6.0.5)
; #@! TF.FileFunction,NonPlated,1,2,NPTH
FMAT,2
INCH
; #@! TA.AperFunction,NonPlated,NPTH,ComponentDrill
T1C0.0197
; #@! TA.AperFunction,NonPlated,NPTH,ComponentDrill
T2C0.0256
%
G90
G05
T1
X2.608Y-1.8864
X2.608Y-1.9967
X2.608Y-2.7577
X2.608Y-2.868
X2.608Y-3.629
X2.608Y-1.5611
X2.608Y-2.3222
X2.608Y-2.4324
X2.608Y-3.1935
X2.608Y-3.3037
X2.6474Y-1.8864
X2.6474Y-1.9967
X2.6474Y-2.7577
X2.6474Y-2.868
X2.6474Y-3.629
X2.6474Y-1.5611
X2.6474Y-2.3222
X2.6474Y-2.4324
X2.6474Y-3.1935
X2.6474Y-3.3037
X2.6867Y-1.8864
X2.6867Y-1.9967
X2.6867Y-2.7577
X2.6867Y-2.868
X2.6867Y-3.629
X2.6867Y-1.5612
X2.6867Y-2.3222
X2.6867Y-2.4324
X2.6867Y-3.1935
X2.6867Y-3.3037
X2.7261Y-1.8864
X2.7261Y-1.9967
X2.7261Y-2.7577
X2.7261Y-2.868
X2.7261Y-3.629
X2.7261Y-1.5612
X2.7261Y-2.3222
X2.7261Y-2.4324
X2.7261Y-3.1935
X2.7261Y-3.3037
X3.038Y-3.629
X3.0774Y-3.629
X3.1167Y-3.629
X3.1561Y-3.629
X3.1973Y-1.8865
X3.1973Y-1.9967
X3.1973Y-2.7577
X3.1973Y-2.8679
X3.1973Y-1.5612
X3.1973Y-2.3222
X3.1973Y-2.4324
X3.1973Y-3.1934
X3.1973Y-3.3037
X3.2367Y-1.8865
X3.2367Y-1.9967
X3.2367Y-2.7577
X3.2367Y-2.8679
X3.2367Y-1.5612
X3.2367Y-2.3222
X3.2367Y-2.4324
X3.2367Y-3.1934
X3.2367Y-3.3037
X3.2761Y-1.8865
X3.2761Y-1.9967
X3.2761Y-2.7577
X3.2761Y-2.8679
X3.2761Y-1.5612
X3.2761Y-2.3222
X3.2761Y-2.4324
X3.2761Y-3.1934
X3.2761Y-3.3037
X3.3155Y-1.8865
X3.3155Y-1.9967
X3.3155Y-2.7577
X3.3155Y-2.8679
X3.3155Y-1.5612
X3.3155Y-2.3222
X3.3155Y-2.4325
X3.3155Y-3.1934
X3.3155Y-3.3037
T2
X2.9875Y-2.974
X2.9879Y-1.6696
X2.9879Y-2.1052
X2.9879Y-2.5409
X2.9879Y-3.4121
X3.2151Y-2.974
X3.2154Y-1.6696
X3.2154Y-2.1052
X3.2154Y-2.5409
X3.2154Y-3.4121
T0
M30
