%TF.GenerationSoftware,KiCad,Pcbnew,(6.0.5)*%
%TF.CreationDate,2022-06-02T02:11:43+02:00*%
%TF.ProjectId,5Panel_AKBDB,3550616e-656c-45f4-914b-4244422e6b69,R1*%
%TF.SameCoordinates,Original*%
%TF.FileFunction,Paste,Bot*%
%TF.FilePolarity,Positive*%
%FSLAX46Y46*%
G04 Gerber Fmt 4.6, Leading zero omitted, Abs format (unit mm)*
G04 Created by KiCad (PCBNEW (6.0.5)) date 2022-06-02 02:11:43*
%MOMM*%
%LPD*%
G01*
G04 APERTURE LIST*
G04 Aperture macros list*
%AMRoundRect*
0 Rectangle with rounded corners*
0 $1 Rounding radius*
0 $2 $3 $4 $5 $6 $7 $8 $9 X,Y pos of 4 corners*
0 Add a 4 corners polygon primitive as box body*
4,1,4,$2,$3,$4,$5,$6,$7,$8,$9,$2,$3,0*
0 Add four circle primitives for the rounded corners*
1,1,$1+$1,$2,$3*
1,1,$1+$1,$4,$5*
1,1,$1+$1,$6,$7*
1,1,$1+$1,$8,$9*
0 Add four rect primitives between the rounded corners*
20,1,$1+$1,$2,$3,$4,$5,0*
20,1,$1+$1,$4,$5,$6,$7,0*
20,1,$1+$1,$6,$7,$8,$9,0*
20,1,$1+$1,$8,$9,$2,$3,0*%
G04 Aperture macros list end*
%ADD10RoundRect,0.050000X0.300000X0.725000X-0.300000X0.725000X-0.300000X-0.725000X0.300000X-0.725000X0*%
%ADD11RoundRect,0.050000X0.150000X0.725000X-0.150000X0.725000X-0.150000X-0.725000X0.150000X-0.725000X0*%
%ADD12RoundRect,0.150000X0.512500X0.150000X-0.512500X0.150000X-0.512500X-0.150000X0.512500X-0.150000X0*%
%ADD13RoundRect,0.135000X0.185000X-0.135000X0.185000X0.135000X-0.185000X0.135000X-0.185000X-0.135000X0*%
%ADD14RoundRect,0.218750X-0.256250X0.218750X-0.256250X-0.218750X0.256250X-0.218750X0.256250X0.218750X0*%
%ADD15RoundRect,0.135000X-0.135000X-0.185000X0.135000X-0.185000X0.135000X0.185000X-0.135000X0.185000X0*%
%ADD16RoundRect,0.150000X-0.150000X-0.625000X0.150000X-0.625000X0.150000X0.625000X-0.150000X0.625000X0*%
%ADD17RoundRect,0.250000X-0.350000X-0.650000X0.350000X-0.650000X0.350000X0.650000X-0.350000X0.650000X0*%
G04 APERTURE END LIST*
D10*
%TO.C,J1*%
X82006431Y-85222691D03*
X81231431Y-85222691D03*
D11*
X80531431Y-85222691D03*
X80031431Y-85222691D03*
X79531431Y-85222691D03*
X79031431Y-85222691D03*
X78531431Y-85222691D03*
X78031431Y-85222691D03*
X77531431Y-85222691D03*
X77031431Y-85222691D03*
D10*
X76331431Y-85222691D03*
X75556431Y-85222691D03*
%TD*%
%TO.C,J1*%
X81998326Y-74095296D03*
X81223326Y-74095296D03*
D11*
X80523326Y-74095296D03*
X80023326Y-74095296D03*
X79523326Y-74095296D03*
X79023326Y-74095296D03*
X78523326Y-74095296D03*
X78023326Y-74095296D03*
X77523326Y-74095296D03*
X77023326Y-74095296D03*
D10*
X76323326Y-74095296D03*
X75548326Y-74095296D03*
%TD*%
%TO.C,J1*%
X82006431Y-63092691D03*
X81231431Y-63092691D03*
D11*
X80531431Y-63092691D03*
X80031431Y-63092691D03*
X79531431Y-63092691D03*
X79031431Y-63092691D03*
X78531431Y-63092691D03*
X78031431Y-63092691D03*
X77531431Y-63092691D03*
X77031431Y-63092691D03*
D10*
X76331431Y-63092691D03*
X75556431Y-63092691D03*
%TD*%
%TO.C,J1*%
X82006431Y-52027691D03*
X81231431Y-52027691D03*
D11*
X80531431Y-52027691D03*
X80031431Y-52027691D03*
X79531431Y-52027691D03*
X79031431Y-52027691D03*
X78531431Y-52027691D03*
X78031431Y-52027691D03*
X77531431Y-52027691D03*
X77031431Y-52027691D03*
D10*
X76331431Y-52027691D03*
X75556431Y-52027691D03*
%TD*%
D11*
%TO.C,J1*%
X79031431Y-40962691D03*
X78531431Y-40962691D03*
X78031431Y-40962691D03*
X79531431Y-40962691D03*
X77531431Y-40962691D03*
X80031431Y-40962691D03*
X77031431Y-40962691D03*
X80531431Y-40962691D03*
D10*
X81231431Y-40962691D03*
X76331431Y-40962691D03*
X82006431Y-40962691D03*
X75556431Y-40962691D03*
%TD*%
D12*
%TO.C,U1*%
X72126431Y-67234691D03*
X72126431Y-68184691D03*
X72126431Y-69134691D03*
X69851431Y-69134691D03*
X69851431Y-68184691D03*
X69851431Y-67234691D03*
%TD*%
D13*
%TO.C,R2*%
X72591431Y-75649691D03*
X72591431Y-74629691D03*
%TD*%
%TO.C,R2*%
X72591431Y-86714691D03*
X72591431Y-85694691D03*
%TD*%
D14*
%TO.C,F1*%
X71066431Y-74915191D03*
X71066431Y-76490191D03*
%TD*%
%TO.C,F1*%
X71066431Y-85980191D03*
X71066431Y-87555191D03*
%TD*%
D15*
%TO.C,R1*%
X84858931Y-40964691D03*
X85878931Y-40964691D03*
%TD*%
D12*
%TO.C,U1*%
X72126431Y-56169691D03*
X72126431Y-57119691D03*
X72126431Y-58069691D03*
X69851431Y-58069691D03*
X69851431Y-57119691D03*
X69851431Y-56169691D03*
%TD*%
D13*
%TO.C,R2*%
X72591431Y-42454691D03*
X72591431Y-41434691D03*
%TD*%
D16*
%TO.C,J2*%
X63181431Y-78732691D03*
X64181431Y-78732691D03*
X65181431Y-78732691D03*
X66181431Y-78732691D03*
D17*
X61881431Y-74857691D03*
X67481431Y-74857691D03*
%TD*%
D15*
%TO.C,R1*%
X84858931Y-52029691D03*
X85878931Y-52029691D03*
%TD*%
D13*
%TO.C,R2*%
X72591431Y-53519691D03*
X72591431Y-52499691D03*
%TD*%
D15*
%TO.C,R1*%
X84858931Y-63094691D03*
X85878931Y-63094691D03*
%TD*%
D12*
%TO.C,U1*%
X72126431Y-45104691D03*
X72126431Y-46054691D03*
X72126431Y-47004691D03*
X69851431Y-47004691D03*
X69851431Y-46054691D03*
X69851431Y-45104691D03*
%TD*%
D15*
%TO.C,R1*%
X84858931Y-85224691D03*
X85878931Y-85224691D03*
%TD*%
D16*
%TO.C,J2*%
X63181431Y-45537691D03*
X64181431Y-45537691D03*
X65181431Y-45537691D03*
X66181431Y-45537691D03*
D17*
X61881431Y-41662691D03*
X67481431Y-41662691D03*
%TD*%
D12*
%TO.C,U1*%
X72126431Y-78299691D03*
X72126431Y-79249691D03*
X72126431Y-80199691D03*
X69851431Y-80199691D03*
X69851431Y-79249691D03*
X69851431Y-78299691D03*
%TD*%
D16*
%TO.C,J2*%
X63181431Y-56602691D03*
X64181431Y-56602691D03*
X65181431Y-56602691D03*
X66181431Y-56602691D03*
D17*
X61881431Y-52727691D03*
X67481431Y-52727691D03*
%TD*%
D16*
%TO.C,J2*%
X63181431Y-67667691D03*
X64181431Y-67667691D03*
X65181431Y-67667691D03*
X66181431Y-67667691D03*
D17*
X67481431Y-63792691D03*
X61881431Y-63792691D03*
%TD*%
D14*
%TO.C,F1*%
X71066431Y-52785191D03*
X71066431Y-54360191D03*
%TD*%
%TO.C,L1*%
X69468931Y-63847191D03*
X69468931Y-65422191D03*
%TD*%
%TO.C,F1*%
X71066431Y-63850191D03*
X71066431Y-65425191D03*
%TD*%
%TO.C,L1*%
X69468931Y-74912191D03*
X69468931Y-76487191D03*
%TD*%
D15*
%TO.C,R1*%
X84858931Y-74159691D03*
X85878931Y-74159691D03*
%TD*%
D16*
%TO.C,J2*%
X63181431Y-89797691D03*
X64181431Y-89797691D03*
X65181431Y-89797691D03*
X66181431Y-89797691D03*
D17*
X61881431Y-85922691D03*
X67481431Y-85922691D03*
%TD*%
D14*
%TO.C,L1*%
X69468931Y-52782191D03*
X69468931Y-54357191D03*
%TD*%
D13*
%TO.C,R2*%
X72591431Y-64584691D03*
X72591431Y-63564691D03*
%TD*%
D14*
%TO.C,F1*%
X71066431Y-41720191D03*
X71066431Y-43295191D03*
%TD*%
%TO.C,L1*%
X69468931Y-41717191D03*
X69468931Y-43292191D03*
%TD*%
D12*
%TO.C,U1*%
X72126431Y-89364691D03*
X72126431Y-90314691D03*
X72126431Y-91264691D03*
X69851431Y-91264691D03*
X69851431Y-90314691D03*
X69851431Y-89364691D03*
%TD*%
D14*
%TO.C,L1*%
X69468931Y-85977191D03*
X69468931Y-87552191D03*
%TD*%
M02*
