%TF.GenerationSoftware,KiCad,Pcbnew,(6.0.5)*%
%TF.CreationDate,2022-06-02T02:11:43+02:00*%
%TF.ProjectId,5Panel_AKBDB,3550616e-656c-45f4-914b-4244422e6b69,R1*%
%TF.SameCoordinates,Original*%
%TF.FileFunction,Legend,Bot*%
%TF.FilePolarity,Positive*%
%FSLAX46Y46*%
G04 Gerber Fmt 4.6, Leading zero omitted, Abs format (unit mm)*
G04 Created by KiCad (PCBNEW (6.0.5)) date 2022-06-02 02:11:43*
%MOMM*%
%LPD*%
G01*
G04 APERTURE LIST*
G04 Aperture macros list*
%AMRoundRect*
0 Rectangle with rounded corners*
0 $1 Rounding radius*
0 $2 $3 $4 $5 $6 $7 $8 $9 X,Y pos of 4 corners*
0 Add a 4 corners polygon primitive as box body*
4,1,4,$2,$3,$4,$5,$6,$7,$8,$9,$2,$3,0*
0 Add four circle primitives for the rounded corners*
1,1,$1+$1,$2,$3*
1,1,$1+$1,$4,$5*
1,1,$1+$1,$6,$7*
1,1,$1+$1,$8,$9*
0 Add four rect primitives between the rounded corners*
20,1,$1+$1,$2,$3,$4,$5,0*
20,1,$1+$1,$4,$5,$6,$7,0*
20,1,$1+$1,$6,$7,$8,$9,0*
20,1,$1+$1,$8,$9,$2,$3,0*%
G04 Aperture macros list end*
%ADD10C,0.150000*%
%ADD11C,0.125000*%
%ADD12C,0.120000*%
%ADD13C,0.750000*%
%ADD14RoundRect,0.050000X0.300000X0.725000X-0.300000X0.725000X-0.300000X-0.725000X0.300000X-0.725000X0*%
%ADD15RoundRect,0.050000X0.150000X0.725000X-0.150000X0.725000X-0.150000X-0.725000X0.150000X-0.725000X0*%
%ADD16O,1.100000X1.700000*%
%ADD17O,1.100000X2.200000*%
%ADD18RoundRect,0.201000X0.512500X0.150000X-0.512500X0.150000X-0.512500X-0.150000X0.512500X-0.150000X0*%
%ADD19RoundRect,0.186000X0.185000X-0.135000X0.185000X0.135000X-0.185000X0.135000X-0.185000X-0.135000X0*%
%ADD20RoundRect,0.269750X-0.256250X0.218750X-0.256250X-0.218750X0.256250X-0.218750X0.256250X0.218750X0*%
%ADD21RoundRect,0.186000X-0.135000X-0.185000X0.135000X-0.185000X0.135000X0.185000X-0.135000X0.185000X0*%
%ADD22RoundRect,0.201000X-0.150000X-0.625000X0.150000X-0.625000X0.150000X0.625000X-0.150000X0.625000X0*%
%ADD23RoundRect,0.301000X-0.350000X-0.650000X0.350000X-0.650000X0.350000X0.650000X-0.350000X0.650000X0*%
%ADD24C,1.102000*%
%ADD25C,0.602000*%
%ADD26C,3.602001*%
%ADD27C,3.602000*%
G04 APERTURE END LIST*
D10*
%TO.C,J1*%
X79048097Y-88312397D02*
X79048097Y-88883826D01*
X79086192Y-88998112D01*
X79162383Y-89074302D01*
X79276669Y-89112397D01*
X79352859Y-89112397D01*
X78248097Y-89112397D02*
X78705240Y-89112397D01*
X78476669Y-89112397D02*
X78476669Y-88312397D01*
X78552859Y-88426683D01*
X78629050Y-88502873D01*
X78705240Y-88540969D01*
X79039992Y-77185002D02*
X79039992Y-77756431D01*
X79078087Y-77870717D01*
X79154278Y-77946907D01*
X79268564Y-77985002D01*
X79344754Y-77985002D01*
X78239992Y-77985002D02*
X78697135Y-77985002D01*
X78468564Y-77985002D02*
X78468564Y-77185002D01*
X78544754Y-77299288D01*
X78620945Y-77375478D01*
X78697135Y-77413574D01*
X79048097Y-66182397D02*
X79048097Y-66753826D01*
X79086192Y-66868112D01*
X79162383Y-66944302D01*
X79276669Y-66982397D01*
X79352859Y-66982397D01*
X78248097Y-66982397D02*
X78705240Y-66982397D01*
X78476669Y-66982397D02*
X78476669Y-66182397D01*
X78552859Y-66296683D01*
X78629050Y-66372873D01*
X78705240Y-66410969D01*
X79048097Y-55117397D02*
X79048097Y-55688826D01*
X79086192Y-55803112D01*
X79162383Y-55879302D01*
X79276669Y-55917397D01*
X79352859Y-55917397D01*
X78248097Y-55917397D02*
X78705240Y-55917397D01*
X78476669Y-55917397D02*
X78476669Y-55117397D01*
X78552859Y-55231683D01*
X78629050Y-55307873D01*
X78705240Y-55345969D01*
X79048097Y-44052397D02*
X79048097Y-44623826D01*
X79086192Y-44738112D01*
X79162383Y-44814302D01*
X79276669Y-44852397D01*
X79352859Y-44852397D01*
X78248097Y-44852397D02*
X78705240Y-44852397D01*
X78476669Y-44852397D02*
X78476669Y-44052397D01*
X78552859Y-44166683D01*
X78629050Y-44242873D01*
X78705240Y-44280969D01*
%TO.C,U1*%
X71750835Y-65237071D02*
X71750835Y-66046595D01*
X71703216Y-66141833D01*
X71655597Y-66189452D01*
X71560359Y-66237071D01*
X71369883Y-66237071D01*
X71274645Y-66189452D01*
X71227026Y-66141833D01*
X71179407Y-66046595D01*
X71179407Y-65237071D01*
X70179407Y-66237071D02*
X70750835Y-66237071D01*
X70465121Y-66237071D02*
X70465121Y-65237071D01*
X70560359Y-65379929D01*
X70655597Y-65475167D01*
X70750835Y-65522786D01*
%TO.C,R2*%
X74213811Y-74973024D02*
X73737621Y-74639691D01*
X74213811Y-74401595D02*
X73213811Y-74401595D01*
X73213811Y-74782548D01*
X73261431Y-74877786D01*
X73309050Y-74925405D01*
X73404288Y-74973024D01*
X73547145Y-74973024D01*
X73642383Y-74925405D01*
X73690002Y-74877786D01*
X73737621Y-74782548D01*
X73737621Y-74401595D01*
X73309050Y-75353976D02*
X73261431Y-75401595D01*
X73213811Y-75496833D01*
X73213811Y-75734929D01*
X73261431Y-75830167D01*
X73309050Y-75877786D01*
X73404288Y-75925405D01*
X73499526Y-75925405D01*
X73642383Y-75877786D01*
X74213811Y-75306357D01*
X74213811Y-75925405D01*
X74213811Y-86038024D02*
X73737621Y-85704691D01*
X74213811Y-85466595D02*
X73213811Y-85466595D01*
X73213811Y-85847548D01*
X73261431Y-85942786D01*
X73309050Y-85990405D01*
X73404288Y-86038024D01*
X73547145Y-86038024D01*
X73642383Y-85990405D01*
X73690002Y-85942786D01*
X73737621Y-85847548D01*
X73737621Y-85466595D01*
X73309050Y-86418976D02*
X73261431Y-86466595D01*
X73213811Y-86561833D01*
X73213811Y-86799929D01*
X73261431Y-86895167D01*
X73309050Y-86942786D01*
X73404288Y-86990405D01*
X73499526Y-86990405D01*
X73642383Y-86942786D01*
X74213811Y-86371357D01*
X74213811Y-86990405D01*
%TO.C,F1*%
X71362264Y-73518262D02*
X71695597Y-73518262D01*
X71695597Y-74042071D02*
X71695597Y-73042071D01*
X71219407Y-73042071D01*
X70314645Y-74042071D02*
X70886073Y-74042071D01*
X70600359Y-74042071D02*
X70600359Y-73042071D01*
X70695597Y-73184929D01*
X70790835Y-73280167D01*
X70886073Y-73327786D01*
X71362264Y-84583262D02*
X71695597Y-84583262D01*
X71695597Y-85107071D02*
X71695597Y-84107071D01*
X71219407Y-84107071D01*
X70314645Y-85107071D02*
X70886073Y-85107071D01*
X70600359Y-85107071D02*
X70600359Y-84107071D01*
X70695597Y-84249929D01*
X70790835Y-84345167D01*
X70886073Y-84392786D01*
%TO.C,R1*%
X85535597Y-42587071D02*
X85868931Y-42110881D01*
X86107026Y-42587071D02*
X86107026Y-41587071D01*
X85726073Y-41587071D01*
X85630835Y-41634691D01*
X85583216Y-41682310D01*
X85535597Y-41777548D01*
X85535597Y-41920405D01*
X85583216Y-42015643D01*
X85630835Y-42063262D01*
X85726073Y-42110881D01*
X86107026Y-42110881D01*
X84583216Y-42587071D02*
X85154645Y-42587071D01*
X84868931Y-42587071D02*
X84868931Y-41587071D01*
X84964169Y-41729929D01*
X85059407Y-41825167D01*
X85154645Y-41872786D01*
%TO.C,U1*%
X71750835Y-54172071D02*
X71750835Y-54981595D01*
X71703216Y-55076833D01*
X71655597Y-55124452D01*
X71560359Y-55172071D01*
X71369883Y-55172071D01*
X71274645Y-55124452D01*
X71227026Y-55076833D01*
X71179407Y-54981595D01*
X71179407Y-54172071D01*
X70179407Y-55172071D02*
X70750835Y-55172071D01*
X70465121Y-55172071D02*
X70465121Y-54172071D01*
X70560359Y-54314929D01*
X70655597Y-54410167D01*
X70750835Y-54457786D01*
%TO.C,R2*%
X74213811Y-41778024D02*
X73737621Y-41444691D01*
X74213811Y-41206595D02*
X73213811Y-41206595D01*
X73213811Y-41587548D01*
X73261431Y-41682786D01*
X73309050Y-41730405D01*
X73404288Y-41778024D01*
X73547145Y-41778024D01*
X73642383Y-41730405D01*
X73690002Y-41682786D01*
X73737621Y-41587548D01*
X73737621Y-41206595D01*
X73309050Y-42158976D02*
X73261431Y-42206595D01*
X73213811Y-42301833D01*
X73213811Y-42539929D01*
X73261431Y-42635167D01*
X73309050Y-42682786D01*
X73404288Y-42730405D01*
X73499526Y-42730405D01*
X73642383Y-42682786D01*
X74213811Y-42111357D01*
X74213811Y-42730405D01*
%TO.C,J2*%
X60122264Y-73732071D02*
X60122264Y-74446357D01*
X60169883Y-74589214D01*
X60265121Y-74684452D01*
X60407978Y-74732071D01*
X60503216Y-74732071D01*
X59693692Y-73827310D02*
X59646073Y-73779691D01*
X59550835Y-73732071D01*
X59312740Y-73732071D01*
X59217502Y-73779691D01*
X59169883Y-73827310D01*
X59122264Y-73922548D01*
X59122264Y-74017786D01*
X59169883Y-74160643D01*
X59741311Y-74732071D01*
X59122264Y-74732071D01*
%TO.C,R1*%
X85535597Y-53652071D02*
X85868931Y-53175881D01*
X86107026Y-53652071D02*
X86107026Y-52652071D01*
X85726073Y-52652071D01*
X85630835Y-52699691D01*
X85583216Y-52747310D01*
X85535597Y-52842548D01*
X85535597Y-52985405D01*
X85583216Y-53080643D01*
X85630835Y-53128262D01*
X85726073Y-53175881D01*
X86107026Y-53175881D01*
X84583216Y-53652071D02*
X85154645Y-53652071D01*
X84868931Y-53652071D02*
X84868931Y-52652071D01*
X84964169Y-52794929D01*
X85059407Y-52890167D01*
X85154645Y-52937786D01*
%TO.C,R2*%
X74213811Y-52843024D02*
X73737621Y-52509691D01*
X74213811Y-52271595D02*
X73213811Y-52271595D01*
X73213811Y-52652548D01*
X73261431Y-52747786D01*
X73309050Y-52795405D01*
X73404288Y-52843024D01*
X73547145Y-52843024D01*
X73642383Y-52795405D01*
X73690002Y-52747786D01*
X73737621Y-52652548D01*
X73737621Y-52271595D01*
X73309050Y-53223976D02*
X73261431Y-53271595D01*
X73213811Y-53366833D01*
X73213811Y-53604929D01*
X73261431Y-53700167D01*
X73309050Y-53747786D01*
X73404288Y-53795405D01*
X73499526Y-53795405D01*
X73642383Y-53747786D01*
X74213811Y-53176357D01*
X74213811Y-53795405D01*
%TO.C,R1*%
X85535597Y-64717071D02*
X85868931Y-64240881D01*
X86107026Y-64717071D02*
X86107026Y-63717071D01*
X85726073Y-63717071D01*
X85630835Y-63764691D01*
X85583216Y-63812310D01*
X85535597Y-63907548D01*
X85535597Y-64050405D01*
X85583216Y-64145643D01*
X85630835Y-64193262D01*
X85726073Y-64240881D01*
X86107026Y-64240881D01*
X84583216Y-64717071D02*
X85154645Y-64717071D01*
X84868931Y-64717071D02*
X84868931Y-63717071D01*
X84964169Y-63859929D01*
X85059407Y-63955167D01*
X85154645Y-64002786D01*
%TO.C,U1*%
X71750835Y-43107071D02*
X71750835Y-43916595D01*
X71703216Y-44011833D01*
X71655597Y-44059452D01*
X71560359Y-44107071D01*
X71369883Y-44107071D01*
X71274645Y-44059452D01*
X71227026Y-44011833D01*
X71179407Y-43916595D01*
X71179407Y-43107071D01*
X70179407Y-44107071D02*
X70750835Y-44107071D01*
X70465121Y-44107071D02*
X70465121Y-43107071D01*
X70560359Y-43249929D01*
X70655597Y-43345167D01*
X70750835Y-43392786D01*
%TO.C,R1*%
X85535597Y-86847071D02*
X85868931Y-86370881D01*
X86107026Y-86847071D02*
X86107026Y-85847071D01*
X85726073Y-85847071D01*
X85630835Y-85894691D01*
X85583216Y-85942310D01*
X85535597Y-86037548D01*
X85535597Y-86180405D01*
X85583216Y-86275643D01*
X85630835Y-86323262D01*
X85726073Y-86370881D01*
X86107026Y-86370881D01*
X84583216Y-86847071D02*
X85154645Y-86847071D01*
X84868931Y-86847071D02*
X84868931Y-85847071D01*
X84964169Y-85989929D01*
X85059407Y-86085167D01*
X85154645Y-86132786D01*
%TO.C,J2*%
X60122264Y-40537071D02*
X60122264Y-41251357D01*
X60169883Y-41394214D01*
X60265121Y-41489452D01*
X60407978Y-41537071D01*
X60503216Y-41537071D01*
X59693692Y-40632310D02*
X59646073Y-40584691D01*
X59550835Y-40537071D01*
X59312740Y-40537071D01*
X59217502Y-40584691D01*
X59169883Y-40632310D01*
X59122264Y-40727548D01*
X59122264Y-40822786D01*
X59169883Y-40965643D01*
X59741311Y-41537071D01*
X59122264Y-41537071D01*
%TO.C,U1*%
X71750835Y-76302071D02*
X71750835Y-77111595D01*
X71703216Y-77206833D01*
X71655597Y-77254452D01*
X71560359Y-77302071D01*
X71369883Y-77302071D01*
X71274645Y-77254452D01*
X71227026Y-77206833D01*
X71179407Y-77111595D01*
X71179407Y-76302071D01*
X70179407Y-77302071D02*
X70750835Y-77302071D01*
X70465121Y-77302071D02*
X70465121Y-76302071D01*
X70560359Y-76444929D01*
X70655597Y-76540167D01*
X70750835Y-76587786D01*
%TO.C,J2*%
X60122264Y-51602071D02*
X60122264Y-52316357D01*
X60169883Y-52459214D01*
X60265121Y-52554452D01*
X60407978Y-52602071D01*
X60503216Y-52602071D01*
X59693692Y-51697310D02*
X59646073Y-51649691D01*
X59550835Y-51602071D01*
X59312740Y-51602071D01*
X59217502Y-51649691D01*
X59169883Y-51697310D01*
X59122264Y-51792548D01*
X59122264Y-51887786D01*
X59169883Y-52030643D01*
X59741311Y-52602071D01*
X59122264Y-52602071D01*
X60122264Y-62667071D02*
X60122264Y-63381357D01*
X60169883Y-63524214D01*
X60265121Y-63619452D01*
X60407978Y-63667071D01*
X60503216Y-63667071D01*
X59693692Y-62762310D02*
X59646073Y-62714691D01*
X59550835Y-62667071D01*
X59312740Y-62667071D01*
X59217502Y-62714691D01*
X59169883Y-62762310D01*
X59122264Y-62857548D01*
X59122264Y-62952786D01*
X59169883Y-63095643D01*
X59741311Y-63667071D01*
X59122264Y-63667071D01*
%TO.C,F1*%
X71362264Y-51388262D02*
X71695597Y-51388262D01*
X71695597Y-51912071D02*
X71695597Y-50912071D01*
X71219407Y-50912071D01*
X70314645Y-51912071D02*
X70886073Y-51912071D01*
X70600359Y-51912071D02*
X70600359Y-50912071D01*
X70695597Y-51054929D01*
X70790835Y-51150167D01*
X70886073Y-51197786D01*
D11*
%TO.C,L1*%
X68500121Y-63331357D02*
X68500121Y-63093262D01*
X68000121Y-63093262D01*
X68500121Y-63759929D02*
X68500121Y-63474214D01*
X68500121Y-63617071D02*
X68000121Y-63617071D01*
X68071550Y-63569452D01*
X68119169Y-63521833D01*
X68142978Y-63474214D01*
D10*
%TO.C,F1*%
X71362264Y-62453262D02*
X71695597Y-62453262D01*
X71695597Y-62977071D02*
X71695597Y-61977071D01*
X71219407Y-61977071D01*
X70314645Y-62977071D02*
X70886073Y-62977071D01*
X70600359Y-62977071D02*
X70600359Y-61977071D01*
X70695597Y-62119929D01*
X70790835Y-62215167D01*
X70886073Y-62262786D01*
D11*
%TO.C,L1*%
X68500121Y-74396357D02*
X68500121Y-74158262D01*
X68000121Y-74158262D01*
X68500121Y-74824929D02*
X68500121Y-74539214D01*
X68500121Y-74682071D02*
X68000121Y-74682071D01*
X68071550Y-74634452D01*
X68119169Y-74586833D01*
X68142978Y-74539214D01*
D10*
%TO.C,R1*%
X85535597Y-75782071D02*
X85868931Y-75305881D01*
X86107026Y-75782071D02*
X86107026Y-74782071D01*
X85726073Y-74782071D01*
X85630835Y-74829691D01*
X85583216Y-74877310D01*
X85535597Y-74972548D01*
X85535597Y-75115405D01*
X85583216Y-75210643D01*
X85630835Y-75258262D01*
X85726073Y-75305881D01*
X86107026Y-75305881D01*
X84583216Y-75782071D02*
X85154645Y-75782071D01*
X84868931Y-75782071D02*
X84868931Y-74782071D01*
X84964169Y-74924929D01*
X85059407Y-75020167D01*
X85154645Y-75067786D01*
%TO.C,J2*%
X60122264Y-84797071D02*
X60122264Y-85511357D01*
X60169883Y-85654214D01*
X60265121Y-85749452D01*
X60407978Y-85797071D01*
X60503216Y-85797071D01*
X59693692Y-84892310D02*
X59646073Y-84844691D01*
X59550835Y-84797071D01*
X59312740Y-84797071D01*
X59217502Y-84844691D01*
X59169883Y-84892310D01*
X59122264Y-84987548D01*
X59122264Y-85082786D01*
X59169883Y-85225643D01*
X59741311Y-85797071D01*
X59122264Y-85797071D01*
D11*
%TO.C,L1*%
X68500121Y-52266357D02*
X68500121Y-52028262D01*
X68000121Y-52028262D01*
X68500121Y-52694929D02*
X68500121Y-52409214D01*
X68500121Y-52552071D02*
X68000121Y-52552071D01*
X68071550Y-52504452D01*
X68119169Y-52456833D01*
X68142978Y-52409214D01*
D10*
%TO.C,R2*%
X74213811Y-63908024D02*
X73737621Y-63574691D01*
X74213811Y-63336595D02*
X73213811Y-63336595D01*
X73213811Y-63717548D01*
X73261431Y-63812786D01*
X73309050Y-63860405D01*
X73404288Y-63908024D01*
X73547145Y-63908024D01*
X73642383Y-63860405D01*
X73690002Y-63812786D01*
X73737621Y-63717548D01*
X73737621Y-63336595D01*
X73309050Y-64288976D02*
X73261431Y-64336595D01*
X73213811Y-64431833D01*
X73213811Y-64669929D01*
X73261431Y-64765167D01*
X73309050Y-64812786D01*
X73404288Y-64860405D01*
X73499526Y-64860405D01*
X73642383Y-64812786D01*
X74213811Y-64241357D01*
X74213811Y-64860405D01*
%TO.C,F1*%
X71362264Y-40323262D02*
X71695597Y-40323262D01*
X71695597Y-40847071D02*
X71695597Y-39847071D01*
X71219407Y-39847071D01*
X70314645Y-40847071D02*
X70886073Y-40847071D01*
X70600359Y-40847071D02*
X70600359Y-39847071D01*
X70695597Y-39989929D01*
X70790835Y-40085167D01*
X70886073Y-40132786D01*
D11*
%TO.C,L1*%
X68500121Y-41201357D02*
X68500121Y-40963262D01*
X68000121Y-40963262D01*
X68500121Y-41629929D02*
X68500121Y-41344214D01*
X68500121Y-41487071D02*
X68000121Y-41487071D01*
X68071550Y-41439452D01*
X68119169Y-41391833D01*
X68142978Y-41344214D01*
D10*
%TO.C,U1*%
X71750835Y-87367071D02*
X71750835Y-88176595D01*
X71703216Y-88271833D01*
X71655597Y-88319452D01*
X71560359Y-88367071D01*
X71369883Y-88367071D01*
X71274645Y-88319452D01*
X71227026Y-88271833D01*
X71179407Y-88176595D01*
X71179407Y-87367071D01*
X70179407Y-88367071D02*
X70750835Y-88367071D01*
X70465121Y-88367071D02*
X70465121Y-87367071D01*
X70560359Y-87509929D01*
X70655597Y-87605167D01*
X70750835Y-87652786D01*
D11*
%TO.C,L1*%
X68500121Y-85461357D02*
X68500121Y-85223262D01*
X68000121Y-85223262D01*
X68500121Y-85889929D02*
X68500121Y-85604214D01*
X68500121Y-85747071D02*
X68000121Y-85747071D01*
X68071550Y-85699452D01*
X68119169Y-85651833D01*
X68142978Y-85604214D01*
D12*
%TO.C,U1*%
X70988931Y-66624691D02*
X72788931Y-66624691D01*
X70988931Y-69744691D02*
X71788931Y-69744691D01*
X70988931Y-66624691D02*
X70188931Y-66624691D01*
X70988931Y-69744691D02*
X70188931Y-69744691D01*
%TO.C,R2*%
X72971431Y-75293332D02*
X72971431Y-74986050D01*
X72211431Y-75293332D02*
X72211431Y-74986050D01*
X72971431Y-86358332D02*
X72971431Y-86051050D01*
X72211431Y-86358332D02*
X72211431Y-86051050D01*
%TO.C,F1*%
X71576431Y-75539912D02*
X71576431Y-75865470D01*
X70556431Y-75539912D02*
X70556431Y-75865470D01*
X71576431Y-86604912D02*
X71576431Y-86930470D01*
X70556431Y-86604912D02*
X70556431Y-86930470D01*
%TO.C,R1*%
X85215290Y-41344691D02*
X85522572Y-41344691D01*
X85215290Y-40584691D02*
X85522572Y-40584691D01*
%TO.C,U1*%
X70988931Y-55559691D02*
X72788931Y-55559691D01*
X70988931Y-58679691D02*
X70188931Y-58679691D01*
X70988931Y-58679691D02*
X71788931Y-58679691D01*
X70988931Y-55559691D02*
X70188931Y-55559691D01*
%TO.C,R2*%
X72971431Y-42098332D02*
X72971431Y-41791050D01*
X72211431Y-42098332D02*
X72211431Y-41791050D01*
%TO.C,J2*%
X62621431Y-78517691D02*
X62621431Y-79507691D01*
X67791431Y-76017691D02*
X67791431Y-78517691D01*
X67791431Y-78517691D02*
X66741431Y-78517691D01*
X62741431Y-74047691D02*
X66621431Y-74047691D01*
X61571431Y-76017691D02*
X61571431Y-78517691D01*
X61571431Y-78517691D02*
X62621431Y-78517691D01*
%TO.C,R1*%
X85215290Y-51649691D02*
X85522572Y-51649691D01*
X85215290Y-52409691D02*
X85522572Y-52409691D01*
%TO.C,R2*%
X72971431Y-53163332D02*
X72971431Y-52856050D01*
X72211431Y-53163332D02*
X72211431Y-52856050D01*
%TO.C,R1*%
X85215290Y-63474691D02*
X85522572Y-63474691D01*
X85215290Y-62714691D02*
X85522572Y-62714691D01*
%TO.C,U1*%
X70988931Y-47614691D02*
X70188931Y-47614691D01*
X70988931Y-44494691D02*
X70188931Y-44494691D01*
X70988931Y-47614691D02*
X71788931Y-47614691D01*
X70988931Y-44494691D02*
X72788931Y-44494691D01*
%TO.C,R1*%
X85215290Y-84844691D02*
X85522572Y-84844691D01*
X85215290Y-85604691D02*
X85522572Y-85604691D01*
%TO.C,J2*%
X67791431Y-42822691D02*
X67791431Y-45322691D01*
X61571431Y-42822691D02*
X61571431Y-45322691D01*
X67791431Y-45322691D02*
X66741431Y-45322691D01*
X62741431Y-40852691D02*
X66621431Y-40852691D01*
X62621431Y-45322691D02*
X62621431Y-46312691D01*
X61571431Y-45322691D02*
X62621431Y-45322691D01*
%TO.C,U1*%
X70988931Y-80809691D02*
X70188931Y-80809691D01*
X70988931Y-77689691D02*
X72788931Y-77689691D01*
X70988931Y-80809691D02*
X71788931Y-80809691D01*
X70988931Y-77689691D02*
X70188931Y-77689691D01*
%TO.C,J2*%
X61571431Y-53887691D02*
X61571431Y-56387691D01*
X62621431Y-56387691D02*
X62621431Y-57377691D01*
X61571431Y-56387691D02*
X62621431Y-56387691D01*
X62741431Y-51917691D02*
X66621431Y-51917691D01*
X67791431Y-56387691D02*
X66741431Y-56387691D01*
X67791431Y-53887691D02*
X67791431Y-56387691D01*
X67791431Y-64952691D02*
X67791431Y-67452691D01*
X61571431Y-64952691D02*
X61571431Y-67452691D01*
X62741431Y-62982691D02*
X66621431Y-62982691D01*
X62621431Y-67452691D02*
X62621431Y-68442691D01*
X61571431Y-67452691D02*
X62621431Y-67452691D01*
X67791431Y-67452691D02*
X66741431Y-67452691D01*
%TO.C,F1*%
X70556431Y-53409912D02*
X70556431Y-53735470D01*
X71576431Y-53409912D02*
X71576431Y-53735470D01*
%TO.C,L1*%
X68958931Y-64471912D02*
X68958931Y-64797470D01*
X69978931Y-64471912D02*
X69978931Y-64797470D01*
%TO.C,F1*%
X70556431Y-64474912D02*
X70556431Y-64800470D01*
X71576431Y-64474912D02*
X71576431Y-64800470D01*
%TO.C,L1*%
X68958931Y-75536912D02*
X68958931Y-75862470D01*
X69978931Y-75536912D02*
X69978931Y-75862470D01*
%TO.C,R1*%
X85215290Y-74539691D02*
X85522572Y-74539691D01*
X85215290Y-73779691D02*
X85522572Y-73779691D01*
%TO.C,J2*%
X61571431Y-89582691D02*
X62621431Y-89582691D01*
X62741431Y-85112691D02*
X66621431Y-85112691D01*
X62621431Y-89582691D02*
X62621431Y-90572691D01*
X67791431Y-89582691D02*
X66741431Y-89582691D01*
X61571431Y-87082691D02*
X61571431Y-89582691D01*
X67791431Y-87082691D02*
X67791431Y-89582691D01*
%TO.C,L1*%
X69978931Y-53406912D02*
X69978931Y-53732470D01*
X68958931Y-53406912D02*
X68958931Y-53732470D01*
%TO.C,R2*%
X72971431Y-64228332D02*
X72971431Y-63921050D01*
X72211431Y-64228332D02*
X72211431Y-63921050D01*
%TO.C,F1*%
X70556431Y-42344912D02*
X70556431Y-42670470D01*
X71576431Y-42344912D02*
X71576431Y-42670470D01*
%TO.C,L1*%
X68958931Y-42341912D02*
X68958931Y-42667470D01*
X69978931Y-42341912D02*
X69978931Y-42667470D01*
%TO.C,U1*%
X70988931Y-88754691D02*
X70188931Y-88754691D01*
X70988931Y-91874691D02*
X70188931Y-91874691D01*
X70988931Y-91874691D02*
X71788931Y-91874691D01*
X70988931Y-88754691D02*
X72788931Y-88754691D01*
%TO.C,L1*%
X68958931Y-86601912D02*
X68958931Y-86927470D01*
X69978931Y-86601912D02*
X69978931Y-86927470D01*
%TD*%
%LPC*%
D13*
%TO.C,J1*%
X81671431Y-86667691D03*
X75891431Y-86667691D03*
D14*
X82006431Y-85222691D03*
X81231431Y-85222691D03*
D15*
X80531431Y-85222691D03*
X80031431Y-85222691D03*
X79531431Y-85222691D03*
X79031431Y-85222691D03*
X78531431Y-85222691D03*
X78031431Y-85222691D03*
X77531431Y-85222691D03*
X77031431Y-85222691D03*
D14*
X76331431Y-85222691D03*
X75556431Y-85222691D03*
D16*
X83101431Y-90317691D03*
X74461431Y-90317691D03*
D17*
X74461431Y-86137691D03*
X83101431Y-86137691D03*
%TD*%
D13*
%TO.C,J1*%
X81663326Y-75540296D03*
X75883326Y-75540296D03*
D14*
X81998326Y-74095296D03*
X81223326Y-74095296D03*
D15*
X80523326Y-74095296D03*
X80023326Y-74095296D03*
X79523326Y-74095296D03*
X79023326Y-74095296D03*
X78523326Y-74095296D03*
X78023326Y-74095296D03*
X77523326Y-74095296D03*
X77023326Y-74095296D03*
D14*
X76323326Y-74095296D03*
X75548326Y-74095296D03*
D16*
X83093326Y-79190296D03*
X74453326Y-79190296D03*
D17*
X74453326Y-75010296D03*
X83093326Y-75010296D03*
%TD*%
D13*
%TO.C,J1*%
X81671431Y-64537691D03*
X75891431Y-64537691D03*
D14*
X82006431Y-63092691D03*
X81231431Y-63092691D03*
D15*
X80531431Y-63092691D03*
X80031431Y-63092691D03*
X79531431Y-63092691D03*
X79031431Y-63092691D03*
X78531431Y-63092691D03*
X78031431Y-63092691D03*
X77531431Y-63092691D03*
X77031431Y-63092691D03*
D14*
X76331431Y-63092691D03*
X75556431Y-63092691D03*
D16*
X83101431Y-68187691D03*
X74461431Y-68187691D03*
D17*
X74461431Y-64007691D03*
X83101431Y-64007691D03*
%TD*%
D13*
%TO.C,J1*%
X81671431Y-53472691D03*
X75891431Y-53472691D03*
D14*
X82006431Y-52027691D03*
X81231431Y-52027691D03*
D15*
X80531431Y-52027691D03*
X80031431Y-52027691D03*
X79531431Y-52027691D03*
X79031431Y-52027691D03*
X78531431Y-52027691D03*
X78031431Y-52027691D03*
X77531431Y-52027691D03*
X77031431Y-52027691D03*
D14*
X76331431Y-52027691D03*
X75556431Y-52027691D03*
D16*
X83101431Y-57122691D03*
X74461431Y-57122691D03*
D17*
X74461431Y-52942691D03*
X83101431Y-52942691D03*
%TD*%
D16*
%TO.C,J1*%
X74461431Y-46057691D03*
X83101431Y-46057691D03*
D17*
X74461431Y-41877691D03*
X83101431Y-41877691D03*
D13*
X81671431Y-42407691D03*
X75891431Y-42407691D03*
D15*
X79031431Y-40962691D03*
X78531431Y-40962691D03*
X78031431Y-40962691D03*
X79531431Y-40962691D03*
X77531431Y-40962691D03*
X80031431Y-40962691D03*
X77031431Y-40962691D03*
X80531431Y-40962691D03*
D14*
X81231431Y-40962691D03*
X76331431Y-40962691D03*
X82006431Y-40962691D03*
X75556431Y-40962691D03*
%TD*%
D18*
%TO.C,U1*%
X72126431Y-67234691D03*
X72126431Y-68184691D03*
X72126431Y-69134691D03*
X69851431Y-69134691D03*
X69851431Y-68184691D03*
X69851431Y-67234691D03*
%TD*%
D19*
%TO.C,R2*%
X72591431Y-75649691D03*
X72591431Y-74629691D03*
%TD*%
%TO.C,R2*%
X72591431Y-86714691D03*
X72591431Y-85694691D03*
%TD*%
D20*
%TO.C,F1*%
X71066431Y-74915191D03*
X71066431Y-76490191D03*
%TD*%
%TO.C,F1*%
X71066431Y-85980191D03*
X71066431Y-87555191D03*
%TD*%
D21*
%TO.C,R1*%
X84858931Y-40964691D03*
X85878931Y-40964691D03*
%TD*%
D18*
%TO.C,U1*%
X72126431Y-56169691D03*
X72126431Y-57119691D03*
X72126431Y-58069691D03*
X69851431Y-58069691D03*
X69851431Y-57119691D03*
X69851431Y-56169691D03*
%TD*%
D19*
%TO.C,R2*%
X72591431Y-42454691D03*
X72591431Y-41434691D03*
%TD*%
D22*
%TO.C,J2*%
X63181431Y-78732691D03*
X64181431Y-78732691D03*
X65181431Y-78732691D03*
X66181431Y-78732691D03*
D23*
X61881431Y-74857691D03*
X67481431Y-74857691D03*
%TD*%
D21*
%TO.C,R1*%
X84858931Y-52029691D03*
X85878931Y-52029691D03*
%TD*%
D24*
%TO.C,REF\u002A\u002A*%
X87586948Y-35752391D03*
%TD*%
D19*
%TO.C,R2*%
X72591431Y-53519691D03*
X72591431Y-52499691D03*
%TD*%
D21*
%TO.C,R1*%
X84858931Y-63094691D03*
X85878931Y-63094691D03*
%TD*%
D18*
%TO.C,U1*%
X72126431Y-45104691D03*
X72126431Y-46054691D03*
X72126431Y-47004691D03*
X69851431Y-47004691D03*
X69851431Y-46054691D03*
X69851431Y-45104691D03*
%TD*%
D21*
%TO.C,R1*%
X84858931Y-85224691D03*
X85878931Y-85224691D03*
%TD*%
D22*
%TO.C,J2*%
X63181431Y-45537691D03*
X64181431Y-45537691D03*
X65181431Y-45537691D03*
X66181431Y-45537691D03*
D23*
X61881431Y-41662691D03*
X67481431Y-41662691D03*
%TD*%
D18*
%TO.C,U1*%
X72126431Y-78299691D03*
X72126431Y-79249691D03*
X72126431Y-80199691D03*
X69851431Y-80199691D03*
X69851431Y-79249691D03*
X69851431Y-78299691D03*
%TD*%
D22*
%TO.C,J2*%
X63181431Y-56602691D03*
X64181431Y-56602691D03*
X65181431Y-56602691D03*
X66181431Y-56602691D03*
D23*
X61881431Y-52727691D03*
X67481431Y-52727691D03*
%TD*%
D22*
%TO.C,J2*%
X63181431Y-67667691D03*
X64181431Y-67667691D03*
X65181431Y-67667691D03*
X66181431Y-67667691D03*
D23*
X67481431Y-63792691D03*
X61881431Y-63792691D03*
%TD*%
D24*
%TO.C,REF\u002A\u002A*%
X58820949Y-35752391D03*
%TD*%
%TO.C,REF\u002A\u002A*%
X58820949Y-96077391D03*
%TD*%
D20*
%TO.C,F1*%
X71066431Y-52785191D03*
X71066431Y-54360191D03*
%TD*%
%TO.C,L1*%
X69468931Y-63847191D03*
X69468931Y-65422191D03*
%TD*%
%TO.C,F1*%
X71066431Y-63850191D03*
X71066431Y-65425191D03*
%TD*%
%TO.C,L1*%
X69468931Y-74912191D03*
X69468931Y-76487191D03*
%TD*%
D21*
%TO.C,R1*%
X84858931Y-74159691D03*
X85878931Y-74159691D03*
%TD*%
D22*
%TO.C,J2*%
X63181431Y-89797691D03*
X64181431Y-89797691D03*
X65181431Y-89797691D03*
X66181431Y-89797691D03*
D23*
X61881431Y-85922691D03*
X67481431Y-85922691D03*
%TD*%
D20*
%TO.C,L1*%
X69468931Y-52782191D03*
X69468931Y-54357191D03*
%TD*%
D19*
%TO.C,R2*%
X72591431Y-64584691D03*
X72591431Y-63564691D03*
%TD*%
D20*
%TO.C,F1*%
X71066431Y-41720191D03*
X71066431Y-43295191D03*
%TD*%
%TO.C,L1*%
X69468931Y-41717191D03*
X69468931Y-43292191D03*
%TD*%
D18*
%TO.C,U1*%
X72126431Y-89364691D03*
X72126431Y-90314691D03*
X72126431Y-91264691D03*
X69851431Y-91264691D03*
X69851431Y-90314691D03*
X69851431Y-89364691D03*
%TD*%
D20*
%TO.C,L1*%
X69468931Y-85977191D03*
X69468931Y-87552191D03*
%TD*%
D25*
%TO.C,REF\u002A\u002A*%
X81212583Y-39654001D03*
%TD*%
%TO.C,REF\u002A\u002A*%
X67242957Y-58984125D03*
%TD*%
%TO.C,REF\u002A\u002A*%
X81212566Y-70046505D03*
%TD*%
%TO.C,REF\u002A\u002A*%
X66242940Y-50716716D03*
%TD*%
%TO.C,REF\u002A\u002A*%
X69242957Y-81113960D03*
%TD*%
%TO.C,REF\u002A\u002A*%
X69242957Y-61783304D03*
%TD*%
%TO.C,REF\u002A\u002A*%
X83212583Y-39654166D03*
%TD*%
%TO.C,REF\u002A\u002A*%
X69242940Y-92175799D03*
%TD*%
%TO.C,REF\u002A\u002A*%
X68242940Y-50716548D03*
%TD*%
%TO.C,REF\u002A\u002A*%
X68242940Y-70045714D03*
%TD*%
%TO.C,REF\u002A\u002A*%
X81212566Y-72845840D03*
%TD*%
%TO.C,REF\u002A\u002A*%
X84212566Y-70046757D03*
%TD*%
%TO.C,REF\u002A\u002A*%
X68242957Y-58984043D03*
%TD*%
%TO.C,REF\u002A\u002A*%
X84212566Y-47916757D03*
%TD*%
D26*
%TO.C,MH2*%
X87736431Y-76972691D03*
%TD*%
D25*
%TO.C,REF\u002A\u002A*%
X84212583Y-58983096D03*
%TD*%
%TO.C,REF\u002A\u002A*%
X68242940Y-72846548D03*
%TD*%
D26*
%TO.C,MH2*%
X87736431Y-43777691D03*
%TD*%
D25*
%TO.C,REF\u002A\u002A*%
X82212583Y-39654084D03*
%TD*%
%TO.C,REF\u002A\u002A*%
X66242957Y-58984208D03*
%TD*%
%TO.C,REF\u002A\u002A*%
X80164940Y-92176716D03*
%TD*%
D26*
%TO.C,MH2*%
X87736431Y-65907691D03*
%TD*%
D25*
%TO.C,REF\u002A\u002A*%
X66242957Y-39653055D03*
%TD*%
%TO.C,REF\u002A\u002A*%
X81212583Y-58983345D03*
%TD*%
%TO.C,REF\u002A\u002A*%
X66242940Y-70045546D03*
%TD*%
%TO.C,REF\u002A\u002A*%
X69242940Y-72846464D03*
%TD*%
%TO.C,REF\u002A\u002A*%
X82212583Y-83914084D03*
%TD*%
%TO.C,REF\u002A\u002A*%
X83212566Y-70046673D03*
%TD*%
%TO.C,REF\u002A\u002A*%
X68242957Y-39653221D03*
%TD*%
%TO.C,REF\u002A\u002A*%
X69242957Y-58983960D03*
%TD*%
%TO.C,REF\u002A\u002A*%
X69242940Y-47915799D03*
%TD*%
%TO.C,REF\u002A\u002A*%
X84212583Y-83914249D03*
%TD*%
%TO.C,REF\u002A\u002A*%
X67242940Y-70045630D03*
%TD*%
%TO.C,REF\u002A\u002A*%
X67242940Y-50716632D03*
%TD*%
%TO.C,REF\u002A\u002A*%
X67242957Y-61783138D03*
%TD*%
%TO.C,REF\u002A\u002A*%
X82212583Y-81113262D03*
%TD*%
%TO.C,REF\u002A\u002A*%
X67242957Y-39653138D03*
%TD*%
%TO.C,REF\u002A\u002A*%
X67242940Y-72846632D03*
%TD*%
%TO.C,REF\u002A\u002A*%
X66242957Y-81114208D03*
%TD*%
%TO.C,REF\u002A\u002A*%
X66242940Y-92175546D03*
%TD*%
%TO.C,REF\u002A\u002A*%
X81212566Y-50715840D03*
%TD*%
%TO.C,REF\u002A\u002A*%
X69242957Y-83913304D03*
%TD*%
D27*
%TO.C,MH1*%
X58852931Y-43782373D03*
%TD*%
D25*
%TO.C,REF\u002A\u002A*%
X83212566Y-72845671D03*
%TD*%
%TO.C,REF\u002A\u002A*%
X69242957Y-39653304D03*
%TD*%
%TO.C,REF\u002A\u002A*%
X83212583Y-58983179D03*
%TD*%
%TO.C,REF\u002A\u002A*%
X82212566Y-70046589D03*
%TD*%
%TO.C,REF\u002A\u002A*%
X82212566Y-50715755D03*
%TD*%
%TO.C,REF\u002A\u002A*%
X66242957Y-61783055D03*
%TD*%
%TO.C,REF\u002A\u002A*%
X68242957Y-83913221D03*
%TD*%
%TO.C,REF\u002A\u002A*%
X82212566Y-72845755D03*
%TD*%
%TO.C,REF\u002A\u002A*%
X67242957Y-81114125D03*
%TD*%
D26*
%TO.C,MH2*%
X87736431Y-88037691D03*
%TD*%
D25*
%TO.C,REF\u002A\u002A*%
X66242940Y-72846716D03*
%TD*%
%TO.C,REF\u002A\u002A*%
X84212566Y-50715587D03*
%TD*%
%TO.C,REF\u002A\u002A*%
X84212583Y-61784249D03*
%TD*%
D26*
%TO.C,MH2*%
X87736431Y-54842691D03*
%TD*%
D25*
%TO.C,REF\u002A\u002A*%
X83212583Y-81113179D03*
%TD*%
%TO.C,REF\u002A\u002A*%
X82212566Y-47916589D03*
%TD*%
%TO.C,REF\u002A\u002A*%
X81212583Y-83914001D03*
%TD*%
%TO.C,REF\u002A\u002A*%
X78164940Y-92176548D03*
%TD*%
%TO.C,REF\u002A\u002A*%
X68242957Y-61783221D03*
%TD*%
%TO.C,REF\u002A\u002A*%
X79164940Y-92176632D03*
%TD*%
%TO.C,REF\u002A\u002A*%
X67242940Y-47915630D03*
%TD*%
%TO.C,REF\u002A\u002A*%
X84212583Y-81113096D03*
%TD*%
%TO.C,REF\u002A\u002A*%
X77164940Y-92176464D03*
%TD*%
D27*
%TO.C,MH1*%
X58852931Y-76977373D03*
%TD*%
D25*
%TO.C,REF\u002A\u002A*%
X66242957Y-83913055D03*
%TD*%
%TO.C,REF\u002A\u002A*%
X69242940Y-70045799D03*
%TD*%
%TO.C,REF\u002A\u002A*%
X81212583Y-81113345D03*
%TD*%
D27*
%TO.C,MH1*%
X58852931Y-54847373D03*
%TD*%
D25*
%TO.C,REF\u002A\u002A*%
X66242940Y-47915546D03*
%TD*%
%TO.C,REF\u002A\u002A*%
X83212566Y-50715671D03*
%TD*%
%TO.C,REF\u002A\u002A*%
X81212583Y-61784001D03*
%TD*%
%TO.C,REF\u002A\u002A*%
X83212583Y-83914166D03*
%TD*%
D27*
%TO.C,MH1*%
X58852931Y-88042373D03*
%TD*%
D25*
%TO.C,REF\u002A\u002A*%
X83212583Y-61784166D03*
%TD*%
%TO.C,REF\u002A\u002A*%
X67242957Y-83913138D03*
%TD*%
%TO.C,REF\u002A\u002A*%
X68242940Y-92175714D03*
%TD*%
%TO.C,REF\u002A\u002A*%
X82212583Y-61784084D03*
%TD*%
%TO.C,REF\u002A\u002A*%
X82212583Y-58983262D03*
%TD*%
%TO.C,REF\u002A\u002A*%
X84212583Y-39654249D03*
%TD*%
%TO.C,REF\u002A\u002A*%
X67242940Y-92175630D03*
%TD*%
%TO.C,REF\u002A\u002A*%
X83212566Y-47916673D03*
%TD*%
D27*
%TO.C,MH1*%
X58852931Y-65912373D03*
%TD*%
D25*
%TO.C,REF\u002A\u002A*%
X69242940Y-50716464D03*
%TD*%
%TO.C,REF\u002A\u002A*%
X84212566Y-72845587D03*
%TD*%
%TO.C,REF\u002A\u002A*%
X68242940Y-47915714D03*
%TD*%
%TO.C,REF\u002A\u002A*%
X68242957Y-81114043D03*
%TD*%
%TO.C,REF\u002A\u002A*%
X81212566Y-47916505D03*
%TD*%
M02*
