%TF.GenerationSoftware,KiCad,Pcbnew,(6.0.5)*%
%TF.CreationDate,2022-06-02T02:11:43+02:00*%
%TF.ProjectId,5Panel_AKBDB,3550616e-656c-45f4-914b-4244422e6b69,R1*%
%TF.SameCoordinates,Original*%
%TF.FileFunction,Soldermask,Top*%
%TF.FilePolarity,Negative*%
%FSLAX46Y46*%
G04 Gerber Fmt 4.6, Leading zero omitted, Abs format (unit mm)*
G04 Created by KiCad (PCBNEW (6.0.5)) date 2022-06-02 02:11:43*
%MOMM*%
%LPD*%
G01*
G04 APERTURE LIST*
%ADD10C,0.750000*%
%ADD11O,1.100000X1.700000*%
%ADD12O,1.100000X2.200000*%
%ADD13C,0.602000*%
%ADD14C,3.602001*%
%ADD15C,1.102000*%
%ADD16C,3.602000*%
G04 APERTURE END LIST*
D10*
%TO.C,J1*%
X81671431Y-86667691D03*
X75891431Y-86667691D03*
D11*
X83101431Y-90317691D03*
X74461431Y-90317691D03*
D12*
X74461431Y-86137691D03*
X83101431Y-86137691D03*
%TD*%
D10*
%TO.C,J1*%
X81663326Y-75540296D03*
X75883326Y-75540296D03*
D11*
X83093326Y-79190296D03*
X74453326Y-79190296D03*
D12*
X74453326Y-75010296D03*
X83093326Y-75010296D03*
%TD*%
D10*
%TO.C,J1*%
X81671431Y-64537691D03*
X75891431Y-64537691D03*
D11*
X83101431Y-68187691D03*
X74461431Y-68187691D03*
D12*
X74461431Y-64007691D03*
X83101431Y-64007691D03*
%TD*%
D10*
%TO.C,J1*%
X81671431Y-53472691D03*
X75891431Y-53472691D03*
D11*
X83101431Y-57122691D03*
X74461431Y-57122691D03*
D12*
X74461431Y-52942691D03*
X83101431Y-52942691D03*
%TD*%
D11*
%TO.C,J1*%
X74461431Y-46057691D03*
X83101431Y-46057691D03*
D12*
X74461431Y-41877691D03*
X83101431Y-41877691D03*
D10*
X81671431Y-42407691D03*
X75891431Y-42407691D03*
%TD*%
D13*
%TO.C,REF\u002A\u002A*%
X81212583Y-39654001D03*
%TD*%
%TO.C,REF\u002A\u002A*%
X67242957Y-58984125D03*
%TD*%
%TO.C,REF\u002A\u002A*%
X81212566Y-70046505D03*
%TD*%
%TO.C,REF\u002A\u002A*%
X66242940Y-50716716D03*
%TD*%
%TO.C,REF\u002A\u002A*%
X69242957Y-81113960D03*
%TD*%
%TO.C,REF\u002A\u002A*%
X69242957Y-61783304D03*
%TD*%
%TO.C,REF\u002A\u002A*%
X83212583Y-39654166D03*
%TD*%
%TO.C,REF\u002A\u002A*%
X69242940Y-92175799D03*
%TD*%
%TO.C,REF\u002A\u002A*%
X68242940Y-50716548D03*
%TD*%
%TO.C,REF\u002A\u002A*%
X68242940Y-70045714D03*
%TD*%
%TO.C,REF\u002A\u002A*%
X81212566Y-72845840D03*
%TD*%
%TO.C,REF\u002A\u002A*%
X84212566Y-70046757D03*
%TD*%
%TO.C,REF\u002A\u002A*%
X68242957Y-58984043D03*
%TD*%
%TO.C,REF\u002A\u002A*%
X84212566Y-47916757D03*
%TD*%
D14*
%TO.C,MH2*%
X87736431Y-76972691D03*
%TD*%
D15*
%TO.C,REF\u002A\u002A*%
X58820949Y-35752391D03*
%TD*%
D13*
%TO.C,REF\u002A\u002A*%
X84212583Y-58983096D03*
%TD*%
%TO.C,REF\u002A\u002A*%
X68242940Y-72846548D03*
%TD*%
D14*
%TO.C,MH2*%
X87736431Y-43777691D03*
%TD*%
D13*
%TO.C,REF\u002A\u002A*%
X82212583Y-39654084D03*
%TD*%
%TO.C,REF\u002A\u002A*%
X66242957Y-58984208D03*
%TD*%
%TO.C,REF\u002A\u002A*%
X80164940Y-92176716D03*
%TD*%
D14*
%TO.C,MH2*%
X87736431Y-65907691D03*
%TD*%
D13*
%TO.C,REF\u002A\u002A*%
X66242957Y-39653055D03*
%TD*%
%TO.C,REF\u002A\u002A*%
X81212583Y-58983345D03*
%TD*%
%TO.C,REF\u002A\u002A*%
X66242940Y-70045546D03*
%TD*%
%TO.C,REF\u002A\u002A*%
X69242940Y-72846464D03*
%TD*%
%TO.C,REF\u002A\u002A*%
X82212583Y-83914084D03*
%TD*%
%TO.C,REF\u002A\u002A*%
X83212566Y-70046673D03*
%TD*%
%TO.C,REF\u002A\u002A*%
X68242957Y-39653221D03*
%TD*%
%TO.C,REF\u002A\u002A*%
X69242957Y-58983960D03*
%TD*%
%TO.C,REF\u002A\u002A*%
X69242940Y-47915799D03*
%TD*%
%TO.C,REF\u002A\u002A*%
X84212583Y-83914249D03*
%TD*%
%TO.C,REF\u002A\u002A*%
X67242940Y-70045630D03*
%TD*%
%TO.C,REF\u002A\u002A*%
X67242940Y-50716632D03*
%TD*%
%TO.C,REF\u002A\u002A*%
X67242957Y-61783138D03*
%TD*%
%TO.C,REF\u002A\u002A*%
X82212583Y-81113262D03*
%TD*%
%TO.C,REF\u002A\u002A*%
X67242957Y-39653138D03*
%TD*%
%TO.C,REF\u002A\u002A*%
X67242940Y-72846632D03*
%TD*%
D15*
%TO.C,REF\u002A\u002A*%
X58820949Y-96077391D03*
%TD*%
D13*
%TO.C,REF\u002A\u002A*%
X66242957Y-81114208D03*
%TD*%
%TO.C,REF\u002A\u002A*%
X66242940Y-92175546D03*
%TD*%
%TO.C,REF\u002A\u002A*%
X81212566Y-50715840D03*
%TD*%
%TO.C,REF\u002A\u002A*%
X69242957Y-83913304D03*
%TD*%
D16*
%TO.C,MH1*%
X58852931Y-43782373D03*
%TD*%
D13*
%TO.C,REF\u002A\u002A*%
X83212566Y-72845671D03*
%TD*%
%TO.C,REF\u002A\u002A*%
X69242957Y-39653304D03*
%TD*%
%TO.C,REF\u002A\u002A*%
X83212583Y-58983179D03*
%TD*%
%TO.C,REF\u002A\u002A*%
X82212566Y-70046589D03*
%TD*%
%TO.C,REF\u002A\u002A*%
X82212566Y-50715755D03*
%TD*%
%TO.C,REF\u002A\u002A*%
X66242957Y-61783055D03*
%TD*%
%TO.C,REF\u002A\u002A*%
X68242957Y-83913221D03*
%TD*%
%TO.C,REF\u002A\u002A*%
X82212566Y-72845755D03*
%TD*%
%TO.C,REF\u002A\u002A*%
X67242957Y-81114125D03*
%TD*%
D14*
%TO.C,MH2*%
X87736431Y-88037691D03*
%TD*%
D13*
%TO.C,REF\u002A\u002A*%
X66242940Y-72846716D03*
%TD*%
%TO.C,REF\u002A\u002A*%
X84212566Y-50715587D03*
%TD*%
%TO.C,REF\u002A\u002A*%
X84212583Y-61784249D03*
%TD*%
D14*
%TO.C,MH2*%
X87736431Y-54842691D03*
%TD*%
D13*
%TO.C,REF\u002A\u002A*%
X83212583Y-81113179D03*
%TD*%
%TO.C,REF\u002A\u002A*%
X82212566Y-47916589D03*
%TD*%
%TO.C,REF\u002A\u002A*%
X81212583Y-83914001D03*
%TD*%
%TO.C,REF\u002A\u002A*%
X78164940Y-92176548D03*
%TD*%
%TO.C,REF\u002A\u002A*%
X68242957Y-61783221D03*
%TD*%
%TO.C,REF\u002A\u002A*%
X79164940Y-92176632D03*
%TD*%
%TO.C,REF\u002A\u002A*%
X67242940Y-47915630D03*
%TD*%
%TO.C,REF\u002A\u002A*%
X84212583Y-81113096D03*
%TD*%
%TO.C,REF\u002A\u002A*%
X77164940Y-92176464D03*
%TD*%
D16*
%TO.C,MH1*%
X58852931Y-76977373D03*
%TD*%
D13*
%TO.C,REF\u002A\u002A*%
X66242957Y-83913055D03*
%TD*%
%TO.C,REF\u002A\u002A*%
X69242940Y-70045799D03*
%TD*%
%TO.C,REF\u002A\u002A*%
X81212583Y-81113345D03*
%TD*%
D16*
%TO.C,MH1*%
X58852931Y-54847373D03*
%TD*%
D13*
%TO.C,REF\u002A\u002A*%
X66242940Y-47915546D03*
%TD*%
%TO.C,REF\u002A\u002A*%
X83212566Y-50715671D03*
%TD*%
%TO.C,REF\u002A\u002A*%
X81212583Y-61784001D03*
%TD*%
%TO.C,REF\u002A\u002A*%
X83212583Y-83914166D03*
%TD*%
D16*
%TO.C,MH1*%
X58852931Y-88042373D03*
%TD*%
D13*
%TO.C,REF\u002A\u002A*%
X83212583Y-61784166D03*
%TD*%
%TO.C,REF\u002A\u002A*%
X67242957Y-83913138D03*
%TD*%
%TO.C,REF\u002A\u002A*%
X68242940Y-92175714D03*
%TD*%
D15*
%TO.C,REF\u002A\u002A*%
X87586948Y-35752391D03*
%TD*%
D13*
%TO.C,REF\u002A\u002A*%
X82212583Y-61784084D03*
%TD*%
%TO.C,REF\u002A\u002A*%
X82212583Y-58983262D03*
%TD*%
%TO.C,REF\u002A\u002A*%
X84212583Y-39654249D03*
%TD*%
%TO.C,REF\u002A\u002A*%
X67242940Y-92175630D03*
%TD*%
%TO.C,REF\u002A\u002A*%
X83212566Y-47916673D03*
%TD*%
D16*
%TO.C,MH1*%
X58852931Y-65912373D03*
%TD*%
D13*
%TO.C,REF\u002A\u002A*%
X69242940Y-50716464D03*
%TD*%
%TO.C,REF\u002A\u002A*%
X84212566Y-72845587D03*
%TD*%
%TO.C,REF\u002A\u002A*%
X68242940Y-47915714D03*
%TD*%
%TO.C,REF\u002A\u002A*%
X68242957Y-81114043D03*
%TD*%
%TO.C,REF\u002A\u002A*%
X81212566Y-47916505D03*
%TD*%
M02*
