%TF.GenerationSoftware,KiCad,Pcbnew,(6.0.5)*%
%TF.CreationDate,2022-06-02T02:11:43+02:00*%
%TF.ProjectId,5Panel_AKBDB,3550616e-656c-45f4-914b-4244422e6b69,R1*%
%TF.SameCoordinates,Original*%
%TF.FileFunction,Profile,NP*%
%FSLAX46Y46*%
G04 Gerber Fmt 4.6, Leading zero omitted, Abs format (unit mm)*
G04 Created by KiCad (PCBNEW (6.0.5)) date 2022-06-02 02:11:43*
%MOMM*%
%LPD*%
G01*
G04 APERTURE LIST*
%TA.AperFunction,Profile*%
%ADD10C,0.100000*%
%TD*%
G04 APERTURE END LIST*
D10*
X56820949Y-37752391D02*
X66242949Y-37752391D01*
X88949429Y-73173233D02*
X88886934Y-73134936D01*
X89151490Y-91692094D02*
X89201647Y-91641937D01*
X56964014Y-69163922D02*
X56996855Y-69226793D01*
X88183931Y-50814873D02*
X84212574Y-50815587D01*
X66242949Y-94077391D02*
X56820949Y-94077391D01*
X57256382Y-58497081D02*
X57309014Y-58544632D01*
X56820949Y-79612372D02*
X56822744Y-79683280D01*
X57604381Y-58739298D02*
X57668834Y-58768913D01*
X89579749Y-46559009D02*
X89585134Y-46488282D01*
X89585029Y-63209102D02*
X89579277Y-63136032D01*
X56908089Y-80098598D02*
X56934400Y-80164468D01*
X58079295Y-58875189D02*
X58223931Y-58884873D01*
X89493955Y-62780656D02*
X89465905Y-62712940D01*
X88333271Y-50825042D02*
X88183931Y-50814873D01*
X57363986Y-47524457D02*
X57421159Y-47566440D01*
X89518422Y-51784747D02*
X89493955Y-51715656D01*
X89499788Y-80098605D02*
X89522730Y-80031485D01*
X57158676Y-69459292D02*
X57206227Y-69511924D01*
X89585134Y-57553282D02*
X89583931Y-57484873D01*
X58150021Y-92075576D02*
X66242949Y-92075546D01*
X81212574Y-69946505D02*
X81212574Y-72945840D01*
X58147661Y-84014309D02*
X58074592Y-84020060D01*
X56828130Y-68689007D02*
X56837090Y-68759370D01*
X56838169Y-74128366D02*
X56828602Y-74201034D01*
X89570789Y-68759373D02*
X89579749Y-68689009D01*
X89336006Y-69347157D02*
X89375039Y-69287930D01*
X88333271Y-84020042D02*
X88260201Y-84014291D01*
X88186931Y-92077391D02*
X88257840Y-92075594D01*
X89098858Y-58544647D02*
X89151490Y-58497094D01*
X88949429Y-84238233D02*
X88886934Y-84199936D01*
X89579277Y-63136032D02*
X89569709Y-63063363D01*
X89227340Y-51280588D02*
X89176886Y-51227422D01*
X84212574Y-84014249D02*
X84212574Y-81013096D01*
X57158676Y-91589292D02*
X57206227Y-91641924D01*
X89585029Y-74274102D02*
X89579277Y-74201032D01*
X88549279Y-84060076D02*
X88478008Y-84042966D01*
X89493955Y-40650656D02*
X89465905Y-40582940D01*
X58001924Y-50834627D02*
X57929856Y-50847983D01*
X57008501Y-51517380D02*
X56973527Y-51581793D01*
X57206227Y-80576924D02*
X57256382Y-80627081D01*
X89043885Y-58589472D02*
X89098858Y-58544647D01*
X89586948Y-52217372D02*
X89585029Y-52144102D01*
X89009835Y-84279748D02*
X88949429Y-84238233D01*
X89558276Y-46699193D02*
X89570789Y-46629373D01*
X56837090Y-68759370D02*
X56849603Y-68829188D01*
X56849603Y-57764188D02*
X56865636Y-57833284D01*
X57230987Y-40162435D02*
X57180534Y-40215601D01*
X89274942Y-84531323D02*
X89227340Y-84475588D01*
X89539240Y-40790025D02*
X89518422Y-40719747D01*
X89361078Y-84649876D02*
X89319563Y-84589472D01*
X57088313Y-51394482D02*
X57046798Y-51454886D01*
X89579749Y-90819009D02*
X89585134Y-90748282D01*
X57206227Y-69511924D02*
X57256382Y-69562081D01*
X56865636Y-91028284D02*
X56885148Y-91096479D01*
X88949429Y-51043233D02*
X88886934Y-51004936D01*
X88673162Y-47730242D02*
X88739033Y-47703930D01*
X88606042Y-69883184D02*
X88673162Y-69860242D01*
X57939113Y-47788714D02*
X58008932Y-47801228D01*
X56868638Y-51855029D02*
X56851527Y-51926299D01*
X56851527Y-74056299D02*
X56838169Y-74128366D01*
X69242949Y-47815799D02*
X81212574Y-47816505D01*
X89434350Y-51581784D02*
X89399376Y-51517371D01*
X89098858Y-69609647D02*
X89151490Y-69562094D01*
X57339888Y-73259381D02*
X57284154Y-73306982D01*
X56934400Y-91229468D02*
X56964014Y-91293922D01*
X89375039Y-80352930D02*
X89411022Y-80291803D01*
X89465905Y-51647940D02*
X89434350Y-51581784D01*
X56823931Y-63284873D02*
X56820949Y-68547372D01*
X88478008Y-72977966D02*
X88405940Y-72964609D01*
X56822850Y-85339103D02*
X56823931Y-85414873D01*
X89586948Y-63282372D02*
X89585029Y-63209102D01*
X89585029Y-52144102D02*
X89579277Y-52071032D01*
X89151490Y-47432094D02*
X89201647Y-47381937D01*
X69242949Y-50816464D02*
X69242949Y-47815799D01*
X57734705Y-69860225D02*
X57801823Y-69883167D01*
X56851527Y-51926299D02*
X56838169Y-51998366D01*
X88619556Y-39820893D02*
X88549279Y-39800076D01*
X88886934Y-62069936D02*
X88822521Y-62034963D01*
X89569709Y-40933363D02*
X89556352Y-40861295D01*
X89583931Y-57484873D02*
X89586948Y-52217372D01*
X57668834Y-80898913D02*
X57734705Y-80925225D01*
X89465905Y-73777940D02*
X89434350Y-73711784D01*
X57032837Y-47157920D02*
X57071870Y-47217146D01*
X88537847Y-92032698D02*
X88606042Y-92013184D01*
X57520936Y-62069952D02*
X57458441Y-62108248D01*
X89098858Y-47479647D02*
X89151490Y-47432094D01*
X81212574Y-47816505D02*
X81212574Y-50815840D01*
X88756365Y-73068408D02*
X88688648Y-73040360D01*
X89558276Y-90959193D02*
X89570789Y-90889373D01*
X89411022Y-47096803D02*
X89443862Y-47033931D01*
X89558276Y-57764193D02*
X89570789Y-57694373D01*
X56828130Y-57624007D02*
X56837090Y-57694370D01*
X89227340Y-62345588D02*
X89176886Y-62292422D01*
X58074592Y-39760060D02*
X58001924Y-39769627D01*
X89319563Y-62459472D02*
X89274942Y-62401323D01*
X58074592Y-61890060D02*
X58001924Y-61899627D01*
X57398037Y-73214762D02*
X57339888Y-73259381D01*
X89473477Y-58034476D02*
X89499788Y-57968605D01*
X56913923Y-73845662D02*
X56889456Y-73914753D01*
X88739033Y-47703930D02*
X88803487Y-47674315D01*
X57071870Y-69347146D02*
X57113852Y-69404319D01*
X57032837Y-91417920D02*
X57071870Y-91477146D01*
X56964014Y-80228922D02*
X56996855Y-80291793D01*
X88468751Y-80983732D02*
X88537847Y-80967698D01*
X57870018Y-69902680D02*
X57939113Y-69918714D01*
X56973527Y-62646793D02*
X56941972Y-62712947D01*
X57180534Y-40215601D02*
X57132933Y-40271334D01*
X57480384Y-80800473D02*
X57541511Y-80836457D01*
X88606042Y-92013184D02*
X88673162Y-91990242D01*
X57858587Y-50865094D02*
X57788310Y-50885910D01*
X57284154Y-51176982D02*
X57230987Y-51227435D01*
X57734705Y-47730225D02*
X57801823Y-47753167D01*
X56885148Y-46836479D02*
X56908089Y-46903598D01*
X89556352Y-85121295D02*
X89539240Y-85050025D01*
X56851527Y-40861299D02*
X56838169Y-40933366D01*
X89249198Y-91589304D02*
X89294023Y-91534331D01*
X89294023Y-80469331D02*
X89336006Y-80412157D01*
X56885148Y-80031479D02*
X56908089Y-80098598D01*
X58008932Y-47801228D02*
X58079295Y-47810189D01*
X89294023Y-58339331D02*
X89336006Y-58282157D01*
X89434350Y-84776784D02*
X89399376Y-84712371D01*
X56885148Y-68966479D02*
X56908089Y-69033598D01*
X88822521Y-39904963D02*
X88756365Y-39873408D01*
X89522730Y-68966485D02*
X89542242Y-68898289D01*
X57046798Y-40389886D02*
X57008501Y-40452380D01*
X88333271Y-72955042D02*
X88183931Y-72944873D01*
X81212574Y-58883345D02*
X81212574Y-61884001D01*
X56973527Y-84776793D02*
X56941972Y-84842947D01*
X57929856Y-84042983D02*
X57858587Y-84060094D01*
X89586948Y-94077391D02*
X80164948Y-94077391D01*
X89579277Y-74201032D02*
X89569709Y-74128363D01*
X57651504Y-84133425D02*
X57585349Y-84164979D01*
X88260201Y-61884291D02*
X84212574Y-61884249D01*
X58008932Y-58866228D02*
X58079295Y-58875189D01*
X89586948Y-37752391D02*
X89586948Y-33752391D01*
X57668834Y-91963913D02*
X57734705Y-91990225D01*
X88478008Y-61912966D02*
X88405940Y-61899609D01*
X89518422Y-73914747D02*
X89493955Y-73845656D01*
X89375039Y-47157930D02*
X89411022Y-47096803D01*
X88619556Y-50885893D02*
X88549279Y-50865076D01*
X57088313Y-62459482D02*
X57046798Y-62519886D01*
X57032837Y-80352920D02*
X57071870Y-80412146D01*
X89336006Y-80412157D02*
X89375039Y-80352930D01*
X58074592Y-72955060D02*
X58001924Y-72964627D01*
X89434350Y-73711784D02*
X89399376Y-73647371D01*
X66242949Y-92075546D02*
X66242949Y-94077391D01*
X88537847Y-47772698D02*
X88606042Y-47753184D01*
X89043885Y-91784472D02*
X89098858Y-91739647D01*
X57309014Y-80674632D02*
X57363986Y-80719457D01*
X88549279Y-61930076D02*
X88478008Y-61912966D01*
X57088313Y-40329482D02*
X57046798Y-40389886D01*
X56996855Y-47096793D02*
X57032837Y-47157920D01*
X89043885Y-69654472D02*
X89098858Y-69609647D01*
X56828602Y-63136034D02*
X56822850Y-63209103D01*
X57398037Y-84279762D02*
X57339888Y-84324381D01*
X89518422Y-84979747D02*
X89493955Y-84910656D01*
X89294023Y-69404331D02*
X89336006Y-69347157D01*
X57230987Y-51227435D02*
X57180534Y-51280601D01*
X88537847Y-58837698D02*
X88606042Y-58818184D01*
X88756365Y-84133408D02*
X88688648Y-84105360D01*
X89579277Y-52071032D02*
X89569709Y-51998363D01*
X57421159Y-47566440D02*
X57480384Y-47605473D01*
X88333271Y-39760042D02*
X88260201Y-39754291D01*
X89399376Y-73647371D02*
X89361078Y-73584876D01*
X57788310Y-50885910D02*
X57719219Y-50910376D01*
X57071870Y-47217146D02*
X57113852Y-47274319D01*
X57363986Y-80719457D02*
X57421159Y-80761440D01*
X57541511Y-80836457D02*
X57604381Y-80869298D01*
X56941972Y-84842947D02*
X56913923Y-84910662D01*
X57651504Y-73068425D02*
X57585349Y-73099979D01*
X89201647Y-47381937D02*
X89249198Y-47329304D01*
X88986712Y-58631455D02*
X89043885Y-58589472D01*
X81212574Y-81013345D02*
X81212574Y-84014001D01*
X89361078Y-73584876D02*
X89319563Y-73524472D01*
X56941972Y-51647947D02*
X56913923Y-51715662D01*
X88328567Y-81005207D02*
X88398931Y-80996246D01*
X88398931Y-80996246D02*
X88468751Y-80983732D01*
X58220931Y-50817391D02*
X58147661Y-50819309D01*
X88468751Y-69918732D02*
X88537847Y-69902698D01*
X89227340Y-73410588D02*
X89176886Y-73357422D01*
X56828130Y-90819007D02*
X56837090Y-90889370D01*
X56934400Y-80164468D02*
X56964014Y-80228922D01*
X56865636Y-46768284D02*
X56885148Y-46836479D01*
X57541511Y-47641457D02*
X57604381Y-47674298D01*
X77164948Y-94077391D02*
X69242949Y-94077391D01*
X88468751Y-47788732D02*
X88537847Y-47772698D01*
X88619556Y-61950893D02*
X88549279Y-61930076D01*
X66242949Y-61883055D02*
X58220931Y-61882391D01*
X56996855Y-91356793D02*
X57032837Y-91417920D01*
X89443862Y-80228931D02*
X89473477Y-80164476D01*
X56822850Y-74274103D02*
X56823931Y-74344873D01*
X56934400Y-69099468D02*
X56964014Y-69163922D01*
X56837090Y-79824370D02*
X56849603Y-79894188D01*
X89123719Y-51176969D02*
X89067984Y-51129367D01*
X57421159Y-80761440D02*
X57480384Y-80800473D01*
X57939113Y-69918714D02*
X58008932Y-69931228D01*
X88478008Y-39782966D02*
X88405940Y-39769609D01*
X69242949Y-81013960D02*
X80164948Y-81013055D01*
X89411022Y-69226803D02*
X89443862Y-69163931D01*
X88405940Y-72964609D02*
X88333271Y-72955042D01*
X57719219Y-39845376D02*
X57651504Y-39873425D01*
X88986712Y-69696455D02*
X89043885Y-69654472D01*
X88606042Y-80948184D02*
X88673162Y-80925242D01*
X57206227Y-47381924D02*
X57256382Y-47432081D01*
X56868638Y-62920029D02*
X56851527Y-62991299D01*
X57256382Y-80627081D02*
X57309014Y-80674632D01*
X57870018Y-80967680D02*
X57939113Y-80983714D01*
X89043885Y-47524472D02*
X89098858Y-47479647D01*
X56964014Y-58098922D02*
X56996855Y-58161793D01*
X57071870Y-91477146D02*
X57113852Y-91534319D01*
X89009835Y-51084748D02*
X88949429Y-51043233D01*
X89294023Y-47274331D02*
X89336006Y-47217157D01*
X89539240Y-85050025D02*
X89518422Y-84979747D01*
X58074592Y-50825060D02*
X58001924Y-50834627D01*
X88606042Y-58818184D02*
X88673162Y-58795242D01*
X56823931Y-52214873D02*
X56820949Y-57482372D01*
X89201647Y-58446937D02*
X89249198Y-58394304D01*
X58008932Y-80996228D02*
X58079295Y-81005189D01*
X88803487Y-58739315D02*
X88866358Y-58706473D01*
X89098858Y-91739647D02*
X89151490Y-91692094D01*
X57309014Y-47479632D02*
X57363986Y-47524457D01*
X58074592Y-84020060D02*
X58001924Y-84029627D01*
X57801823Y-47753167D02*
X57870018Y-47772680D01*
X57734705Y-58795225D02*
X57801823Y-58818167D01*
X57339888Y-40064381D02*
X57284154Y-40111982D01*
X57788310Y-39820910D02*
X57719219Y-39845376D01*
X56913923Y-84910662D02*
X56889456Y-84979753D01*
X58001924Y-61899627D02*
X57929856Y-61912983D01*
X57256382Y-47432081D02*
X57309014Y-47479632D01*
X88328567Y-92070207D02*
X88398931Y-92061246D01*
X89319563Y-73524472D02*
X89274942Y-73466323D01*
X56913923Y-40650662D02*
X56889456Y-40719753D01*
X56889456Y-62849753D02*
X56868638Y-62920029D01*
X56838169Y-40933366D02*
X56828602Y-41006034D01*
X89249198Y-80524304D02*
X89294023Y-80469331D01*
X89375039Y-91417930D02*
X89411022Y-91356803D01*
X57046798Y-62519886D02*
X57008501Y-62582380D01*
X57046798Y-73584886D02*
X57008501Y-73647380D01*
X89585134Y-90748282D02*
X89583931Y-90674873D01*
X89434350Y-40516784D02*
X89399376Y-40452371D01*
X84212574Y-39754249D02*
X84212574Y-37752432D01*
X89499788Y-57968605D02*
X89522730Y-57901485D01*
X57734705Y-80925225D02*
X57801823Y-80948167D01*
X88186931Y-69947391D02*
X88257840Y-69945594D01*
X89375039Y-58222930D02*
X89411022Y-58161803D01*
X56865636Y-79963284D02*
X56885148Y-80031479D01*
X56913923Y-62780662D02*
X56889456Y-62849753D01*
X57256382Y-69562081D02*
X57309014Y-69609632D01*
X88398931Y-92061246D02*
X88468751Y-92048732D01*
X88549279Y-72995076D02*
X88478008Y-72977966D01*
X89569709Y-63063363D02*
X89556352Y-62991295D01*
X57719219Y-84105376D02*
X57651504Y-84133425D01*
X89399376Y-51517371D02*
X89361078Y-51454876D01*
X66242949Y-47815546D02*
X66242949Y-50816716D01*
X89569709Y-85193363D02*
X89556352Y-85121295D01*
X57585349Y-39904979D02*
X57520936Y-39939952D01*
X57363986Y-58589457D02*
X57421159Y-58631440D01*
X56820949Y-46417372D02*
X56822744Y-46488280D01*
X84212574Y-47816757D02*
X88186931Y-47817391D01*
X69242949Y-94077391D02*
X69242949Y-92075799D01*
X84212574Y-72945587D02*
X84212574Y-69946757D01*
X56822744Y-57553280D02*
X56828130Y-57624007D01*
X57230987Y-84422435D02*
X57180534Y-84475601D01*
X88328567Y-47810207D02*
X88398931Y-47801246D01*
X88398931Y-58866246D02*
X88468751Y-58853732D01*
X57132933Y-51336334D02*
X57088313Y-51394482D01*
X89465905Y-62712940D02*
X89434350Y-62646784D01*
X81212574Y-61884001D02*
X69242949Y-61883304D01*
X57008501Y-62582380D02*
X56973527Y-62646793D01*
X58079295Y-92070189D02*
X58150021Y-92075576D01*
X88260201Y-84014291D02*
X80164948Y-84014208D01*
X89499788Y-69033605D02*
X89522730Y-68966485D01*
X57585349Y-84164979D02*
X57520936Y-84199952D01*
X89556352Y-74056295D02*
X89539240Y-73985025D01*
X57230987Y-73357435D02*
X57180534Y-73410601D01*
X89201647Y-91641937D02*
X89249198Y-91589304D01*
X88927486Y-69735489D02*
X88986712Y-69696455D01*
X56820949Y-33752391D02*
X56820949Y-37752391D01*
X57032837Y-69287920D02*
X57071870Y-69347146D01*
X88549279Y-39800076D02*
X88478008Y-39782966D01*
X89249198Y-58394304D02*
X89294023Y-58339331D01*
X69242949Y-61883304D02*
X69242949Y-58883960D01*
X57668834Y-47703913D02*
X57734705Y-47730225D01*
X57668834Y-69833913D02*
X57734705Y-69860225D01*
X56996855Y-69226793D02*
X57032837Y-69287920D01*
X88478008Y-84042966D02*
X88405940Y-84029609D01*
X89361078Y-51454876D02*
X89319563Y-51394472D01*
X88803487Y-91934315D02*
X88866358Y-91901473D01*
X57858587Y-84060094D02*
X57788310Y-84080910D01*
X66242949Y-81014208D02*
X66242949Y-84013055D01*
X89009835Y-73214748D02*
X88949429Y-73173233D01*
X88673162Y-58795242D02*
X88739033Y-58768930D01*
X56934400Y-58034468D02*
X56964014Y-58098922D01*
X56828130Y-79754007D02*
X56837090Y-79824370D01*
X89585029Y-41079102D02*
X89579277Y-41006032D01*
X89009835Y-40019748D02*
X88949429Y-39978233D01*
X89556352Y-40861295D02*
X89539240Y-40790025D01*
X57801823Y-58818167D02*
X57870018Y-58837680D01*
X89151490Y-80627094D02*
X89201647Y-80576937D01*
X88866358Y-91901473D02*
X88927486Y-91865489D01*
X81212574Y-39754001D02*
X69242949Y-39753304D01*
X57046798Y-84649886D02*
X57008501Y-84712380D01*
X57363986Y-91784457D02*
X57421159Y-91826440D01*
X57734705Y-91990225D02*
X57801823Y-92013167D01*
X57651504Y-62003425D02*
X57585349Y-62034979D01*
X89176886Y-51227422D02*
X89123719Y-51176969D01*
X57180534Y-51280601D02*
X57132933Y-51336334D01*
X89067984Y-51129367D02*
X89009835Y-51084748D01*
X57541511Y-58706457D02*
X57604381Y-58739298D01*
X57929856Y-39782983D02*
X57858587Y-39800094D01*
X89539240Y-62920025D02*
X89518422Y-62849747D01*
X84212574Y-58883096D02*
X88186931Y-58882391D01*
X58001924Y-39769627D02*
X57929856Y-39782983D01*
X89579749Y-79754009D02*
X89585134Y-79683282D01*
X80164948Y-81013055D02*
X88186931Y-81012391D01*
X56885148Y-57901479D02*
X56908089Y-57968598D01*
X66242949Y-58884208D02*
X66242949Y-61883055D01*
X56868638Y-85050029D02*
X56851527Y-85121299D01*
X57284154Y-40111982D02*
X57230987Y-40162435D01*
X57071870Y-80412146D02*
X57113852Y-80469319D01*
X89583931Y-46414873D02*
X89586948Y-41152372D01*
X57788310Y-84080910D02*
X57719219Y-84105376D01*
X89411022Y-80291803D02*
X89443862Y-80228931D01*
X89583931Y-79614873D02*
X89586948Y-74347372D01*
X56973527Y-73711793D02*
X56941972Y-73777947D01*
X89123719Y-40111969D02*
X89067984Y-40064367D01*
X66242949Y-72946716D02*
X58220931Y-72947391D01*
X57480384Y-91865473D02*
X57541511Y-91901457D01*
X89319563Y-51394472D02*
X89274942Y-51336323D01*
X89201647Y-69511937D02*
X89249198Y-69459304D01*
X57801823Y-80948167D02*
X57870018Y-80967680D01*
X88186931Y-47817391D02*
X88257840Y-47815594D01*
X57604381Y-47674298D02*
X57668834Y-47703913D01*
X56837090Y-57694370D02*
X56849603Y-57764188D01*
X57858587Y-61930094D02*
X57788310Y-61950910D01*
X89522730Y-46836485D02*
X89542242Y-46768289D01*
X57398037Y-40019762D02*
X57339888Y-40064381D01*
X89493955Y-51715656D02*
X89465905Y-51647940D01*
X57520936Y-51004952D02*
X57458441Y-51043248D01*
X57585349Y-62034979D02*
X57520936Y-62069952D01*
X89570789Y-46629373D02*
X89579749Y-46559009D01*
X88619556Y-73015893D02*
X88549279Y-72995076D01*
X57309014Y-58544632D02*
X57363986Y-58589457D01*
X89201647Y-80576937D02*
X89249198Y-80524304D01*
X89336006Y-47217157D02*
X89375039Y-47157930D01*
X58079295Y-47810189D02*
X58150021Y-47815576D01*
X88739033Y-58768930D02*
X88803487Y-58739315D01*
X89542242Y-91028289D02*
X89558276Y-90959193D01*
X89434350Y-62646784D02*
X89399376Y-62582371D01*
X89151490Y-69562094D02*
X89201647Y-69511937D01*
X89579277Y-85266032D02*
X89569709Y-85193363D01*
X57480384Y-47605473D02*
X57541511Y-47641457D01*
X89176886Y-84422422D02*
X89123719Y-84371969D01*
X56849603Y-68829188D02*
X56865636Y-68898284D01*
X57421159Y-69696440D02*
X57480384Y-69735473D01*
X89067984Y-62194367D02*
X89009835Y-62149748D01*
X57158676Y-47329292D02*
X57206227Y-47381924D01*
X57719219Y-73040376D02*
X57651504Y-73068425D01*
X57088313Y-84589482D02*
X57046798Y-84649886D01*
X56838169Y-63063366D02*
X56828602Y-63136034D01*
X88886934Y-84199936D02*
X88822521Y-84164963D01*
X58147661Y-50819309D02*
X58074592Y-50825060D01*
X66242949Y-69945546D02*
X66242949Y-72946716D01*
X57180534Y-84475601D02*
X57132933Y-84531334D01*
X56822744Y-79683280D02*
X56828130Y-79754007D01*
X88688648Y-39845360D02*
X88619556Y-39820893D01*
X89556352Y-51926295D02*
X89539240Y-51855025D01*
X56941972Y-40582947D02*
X56913923Y-40650662D01*
X57480384Y-58670473D02*
X57541511Y-58706457D01*
X57858587Y-72995094D02*
X57788310Y-73015910D01*
X58147661Y-72949309D02*
X58074592Y-72955060D01*
X88398931Y-69931246D02*
X88468751Y-69918732D01*
X57801823Y-92013167D02*
X57870018Y-92032680D01*
X88756365Y-50938408D02*
X88688648Y-50910360D01*
X80164948Y-84014208D02*
X69242949Y-84013304D01*
X57870018Y-58837680D02*
X57939113Y-58853714D01*
X84212574Y-50815587D02*
X84212574Y-47816757D01*
X57458441Y-84238248D02*
X57398037Y-84279762D01*
X57158676Y-80524292D02*
X57206227Y-80576924D01*
X89411022Y-58161803D02*
X89443862Y-58098931D01*
X69242949Y-58883960D02*
X81212574Y-58883345D01*
X56820949Y-94077391D02*
X56820949Y-98077391D01*
X88673162Y-80925242D02*
X88739033Y-80898930D01*
X58147661Y-61884309D02*
X58074592Y-61890060D01*
X88886934Y-39939936D02*
X88822521Y-39904963D01*
X88606042Y-47753184D02*
X88673162Y-47730242D01*
X57541511Y-91901457D02*
X57604381Y-91934298D01*
X56889456Y-73914753D02*
X56868638Y-73985029D01*
X89585134Y-68618282D02*
X89583931Y-68544873D01*
X89586948Y-85412372D02*
X89585029Y-85339102D01*
X57132933Y-73466334D02*
X57088313Y-73524482D01*
X89319563Y-84589472D02*
X89274942Y-84531323D01*
X89586948Y-33752391D02*
X56820949Y-33752391D01*
X89518422Y-62849747D02*
X89493955Y-62780656D01*
X56868638Y-73985029D02*
X56851527Y-74056299D01*
X56868638Y-40790029D02*
X56851527Y-40861299D01*
X56908089Y-91163598D02*
X56934400Y-91229468D01*
X88537847Y-69902698D02*
X88606042Y-69883184D01*
X57870018Y-92032680D02*
X57939113Y-92048714D01*
X57668834Y-58768913D02*
X57734705Y-58795225D01*
X69242949Y-92075799D02*
X77164948Y-92076464D01*
X89151490Y-58497094D02*
X89201647Y-58446937D01*
X56849603Y-46699188D02*
X56865636Y-46768284D01*
X57113852Y-47274319D02*
X57158676Y-47329292D01*
X57339888Y-84324381D02*
X57284154Y-84371982D01*
X56837090Y-46629370D02*
X56849603Y-46699188D01*
X56828602Y-74201034D02*
X56822850Y-74274103D01*
X88986712Y-91826455D02*
X89043885Y-91784472D01*
X88822521Y-73099963D02*
X88756365Y-73068408D01*
X57206227Y-58446924D02*
X57256382Y-58497081D01*
X56823931Y-85414873D02*
X56820949Y-90677372D01*
X57398037Y-51084762D02*
X57339888Y-51129381D01*
X89542242Y-57833289D02*
X89558276Y-57764193D01*
X88405940Y-50834609D02*
X88333271Y-50825042D01*
X66242949Y-84013055D02*
X58220931Y-84012391D01*
X89399376Y-40452371D02*
X89361078Y-40389876D01*
X56865636Y-68898284D02*
X56885148Y-68966479D01*
X57480384Y-69735473D02*
X57541511Y-69771457D01*
X58001924Y-84029627D02*
X57929856Y-84042983D01*
X81212574Y-37752432D02*
X81212574Y-39754001D01*
X84212574Y-61884249D02*
X84212574Y-58883096D01*
X58079295Y-69940189D02*
X58150021Y-69945576D01*
X57284154Y-73306982D02*
X57230987Y-73357435D01*
X89542242Y-46768289D02*
X89558276Y-46699193D01*
X89585134Y-79683282D02*
X89583931Y-79614873D01*
X56941972Y-73777947D02*
X56913923Y-73845662D01*
X57206227Y-91641924D02*
X57256382Y-91692081D01*
X56820949Y-57482372D02*
X56822744Y-57553280D01*
X56828602Y-52071034D02*
X56822850Y-52144103D01*
X56973527Y-51581793D02*
X56941972Y-51647947D01*
X56828130Y-46559007D02*
X56837090Y-46629370D01*
X56908089Y-46903598D02*
X56934400Y-46969468D01*
X89473477Y-91229476D02*
X89499788Y-91163605D01*
X57520936Y-73134952D02*
X57458441Y-73173248D01*
X57309014Y-91739632D02*
X57363986Y-91784457D01*
X69242949Y-72946464D02*
X69242949Y-69945799D01*
X88398931Y-47801246D02*
X88468751Y-47788732D01*
X56822850Y-52144103D02*
X56823931Y-52214873D01*
X56838169Y-51998366D02*
X56828602Y-52071034D01*
X57032837Y-58222920D02*
X57071870Y-58282146D01*
X88739033Y-69833930D02*
X88803487Y-69804315D01*
X69242949Y-37752391D02*
X81212574Y-37752432D01*
X81212574Y-72945840D02*
X69242949Y-72946464D01*
X57256382Y-91692081D02*
X57309014Y-91739632D01*
X57458441Y-62108248D02*
X57398037Y-62149762D01*
X57458441Y-51043248D02*
X57398037Y-51084762D01*
X89123719Y-84371969D02*
X89067984Y-84324367D01*
X56837090Y-90889370D02*
X56849603Y-90959188D01*
X88537847Y-80967698D02*
X88606042Y-80948184D01*
X88949429Y-62108233D02*
X88886934Y-62069936D01*
X57008501Y-84712380D02*
X56973527Y-84776793D01*
X57421159Y-58631440D02*
X57480384Y-58670473D01*
X80164948Y-92076716D02*
X88186931Y-92077391D01*
X88257840Y-58880594D02*
X88328567Y-58875207D01*
X89176886Y-40162422D02*
X89123719Y-40111969D01*
X89274942Y-51336323D02*
X89227340Y-51280588D01*
X56828602Y-85266034D02*
X56822850Y-85339103D01*
X89542242Y-79963289D02*
X89558276Y-79894193D01*
X89579277Y-41006032D02*
X89569709Y-40933363D01*
X89569709Y-51998363D02*
X89556352Y-51926295D01*
X56849603Y-90959188D02*
X56865636Y-91028284D01*
X57939113Y-80983714D02*
X58008932Y-80996228D01*
X57309014Y-69609632D02*
X57363986Y-69654457D01*
X88866358Y-58706473D02*
X88927486Y-58670489D01*
X58223931Y-81014873D02*
X66242949Y-81014208D01*
X58001924Y-72964627D02*
X57929856Y-72977983D01*
X89319563Y-40329472D02*
X89274942Y-40271323D01*
X56822744Y-90748280D02*
X56828130Y-90819007D01*
X57132933Y-40271334D02*
X57088313Y-40329482D01*
X89067984Y-40064367D02*
X89009835Y-40019748D01*
X88333271Y-61890042D02*
X88260201Y-61884291D01*
X57858587Y-39800094D02*
X57788310Y-39820910D01*
X88186931Y-81012391D02*
X88257840Y-81010594D01*
X89274942Y-73466323D02*
X89227340Y-73410588D01*
X89499788Y-91163605D02*
X89522730Y-91096485D01*
X88688648Y-50910360D02*
X88619556Y-50885893D01*
X56828602Y-41006034D02*
X56822850Y-41079103D01*
X88822521Y-50969963D02*
X88756365Y-50938408D01*
X57421159Y-91826440D02*
X57480384Y-91865473D01*
X88927486Y-58670489D02*
X88986712Y-58631455D01*
X88688648Y-84105360D02*
X88619556Y-84080893D01*
X56996855Y-80291793D02*
X57032837Y-80352920D01*
X57541511Y-69771457D02*
X57604381Y-69804298D01*
X56941972Y-62712947D02*
X56913923Y-62780662D01*
X57458441Y-39978248D02*
X57398037Y-40019762D01*
X89570789Y-57694373D02*
X89579749Y-57624009D01*
X57801823Y-69883167D02*
X57870018Y-69902680D01*
X89375039Y-69287930D02*
X89411022Y-69226803D01*
X57113852Y-58339319D02*
X57158676Y-58394292D01*
X57719219Y-61975376D02*
X57651504Y-62003425D01*
X89522730Y-91096485D02*
X89542242Y-91028289D01*
X89579749Y-57624009D02*
X89585134Y-57553282D01*
X89586948Y-74347372D02*
X89585029Y-74274102D01*
X89274942Y-40271323D02*
X89227340Y-40215588D01*
X88949429Y-39978233D02*
X88886934Y-39939936D01*
X57046798Y-51454886D02*
X57008501Y-51517380D01*
X88688648Y-73040360D02*
X88619556Y-73015893D01*
X89336006Y-58282157D02*
X89375039Y-58222930D01*
X56820949Y-98077391D02*
X89586948Y-98077391D01*
X88986712Y-80761455D02*
X89043885Y-80719472D01*
X77164948Y-92076464D02*
X77164948Y-94077391D01*
X57929856Y-72977983D02*
X57858587Y-72995094D01*
X88866358Y-47641473D02*
X88927486Y-47605489D01*
X56820949Y-90677372D02*
X56822744Y-90748280D01*
X89227340Y-40215588D02*
X89176886Y-40162422D01*
X56996855Y-58161793D02*
X57032837Y-58222920D01*
X56934400Y-46969468D02*
X56964014Y-47033922D01*
X89542242Y-68898289D02*
X89558276Y-68829193D01*
X89522730Y-57901485D02*
X89542242Y-57833289D01*
X88257840Y-69945594D02*
X88328567Y-69940207D01*
X57132933Y-62401334D02*
X57088313Y-62459482D01*
X88739033Y-80898930D02*
X88803487Y-80869315D01*
X89583931Y-68544873D02*
X89586948Y-63282372D01*
X89274942Y-62401323D02*
X89227340Y-62345588D01*
X89465905Y-84842940D02*
X89434350Y-84776784D01*
X57088313Y-73524482D02*
X57046798Y-73584886D01*
X57788310Y-61950910D02*
X57719219Y-61975376D01*
X89518422Y-40719747D02*
X89493955Y-40650656D01*
X89123719Y-73306969D02*
X89067984Y-73259367D01*
X57604381Y-69804298D02*
X57668834Y-69833913D01*
X66242949Y-37752391D02*
X66242949Y-39753055D01*
X57339888Y-51129381D02*
X57284154Y-51176982D01*
X69242949Y-39753304D02*
X69242949Y-37752391D01*
X89465905Y-40582940D02*
X89434350Y-40516784D01*
X89493955Y-84910656D02*
X89465905Y-84842940D01*
X58008932Y-92061228D02*
X58079295Y-92070189D01*
X89522730Y-80031485D02*
X89542242Y-79963289D01*
X89009835Y-62149748D02*
X88949429Y-62108233D01*
X89585029Y-85339102D02*
X89579277Y-85266032D01*
X57158676Y-58394292D02*
X57206227Y-58446924D01*
X57651504Y-39873425D02*
X57585349Y-39904979D01*
X89558276Y-79894193D02*
X89570789Y-79824373D01*
X89361078Y-62519876D02*
X89319563Y-62459472D01*
X57008501Y-40452380D02*
X56973527Y-40516793D01*
X57113852Y-91534319D02*
X57158676Y-91589292D01*
X89586948Y-98077391D02*
X89586948Y-94077391D01*
X88803487Y-80869315D02*
X88866358Y-80836473D01*
X56822744Y-68618280D02*
X56828130Y-68689007D01*
X89586948Y-41152372D02*
X89585029Y-41079102D01*
X56889456Y-84979753D02*
X56868638Y-85050029D01*
X89098858Y-80674647D02*
X89151490Y-80627094D01*
X88468751Y-58853732D02*
X88537847Y-58837698D01*
X88478008Y-50847966D02*
X88405940Y-50834609D01*
X57071870Y-58282146D02*
X57113852Y-58339319D01*
X88257840Y-81010594D02*
X88328567Y-81005207D01*
X88986712Y-47566455D02*
X89043885Y-47524472D01*
X56822744Y-46488280D02*
X56828130Y-46559007D01*
X89585134Y-46488282D02*
X89583931Y-46414873D01*
X57520936Y-39939952D02*
X57458441Y-39978248D01*
X88866358Y-69771473D02*
X88927486Y-69735489D01*
X58223931Y-58884873D02*
X66242949Y-58884208D01*
X57008501Y-73647380D02*
X56973527Y-73711793D01*
X89399376Y-84712371D02*
X89361078Y-84649876D01*
X88186931Y-58882391D02*
X88257840Y-58880594D01*
X56851527Y-62991299D02*
X56838169Y-63063366D01*
X89473477Y-69099476D02*
X89499788Y-69033605D01*
X88405940Y-39769609D02*
X88333271Y-39760042D01*
X56964014Y-91293922D02*
X56996855Y-91356793D01*
X69242949Y-69945799D02*
X81212574Y-69946505D01*
X57939113Y-92048714D02*
X58008932Y-92061228D01*
X88468751Y-92048732D02*
X88537847Y-92032698D01*
X66242949Y-39753055D02*
X58220931Y-39752391D01*
X58220931Y-84012391D02*
X58147661Y-84014309D01*
X57585349Y-50969979D02*
X57520936Y-51004952D01*
X89556352Y-62991295D02*
X89539240Y-62920025D01*
X89443862Y-91293931D02*
X89473477Y-91229476D01*
X58220931Y-72947391D02*
X58147661Y-72949309D01*
X89361078Y-40389876D02*
X89319563Y-40329472D01*
X88260201Y-39754291D02*
X84212574Y-39754249D01*
X56908089Y-69033598D02*
X56934400Y-69099468D01*
X88927486Y-47605489D02*
X88986712Y-47566455D01*
X81212574Y-50815840D02*
X69242949Y-50816464D01*
X89473477Y-80164476D02*
X89499788Y-80098605D01*
X56838169Y-85193366D02*
X56828602Y-85266034D01*
X80164948Y-94077391D02*
X80164948Y-92076716D01*
X84212574Y-37752432D02*
X89586948Y-37752391D01*
X56889456Y-51784753D02*
X56868638Y-51855029D01*
X57284154Y-84371982D02*
X57230987Y-84422435D01*
X58008932Y-69931228D02*
X58079295Y-69940189D01*
X58147661Y-39754309D02*
X58074592Y-39760060D01*
X89499788Y-46903605D02*
X89522730Y-46836485D01*
X88673162Y-69860242D02*
X88739033Y-69833930D01*
X89558276Y-68829193D02*
X89570789Y-68759373D01*
X88866358Y-80836473D02*
X88927486Y-80800489D01*
X89176886Y-73357422D02*
X89123719Y-73306969D01*
X89443862Y-69163931D02*
X89473477Y-69099476D01*
X57113852Y-69404319D02*
X57158676Y-69459292D01*
X57398037Y-62149762D02*
X57339888Y-62194381D01*
X88257840Y-47815594D02*
X88328567Y-47810207D01*
X88328567Y-58875207D02*
X88398931Y-58866246D01*
X89067984Y-73259367D02*
X89009835Y-73214748D01*
X56822850Y-41079103D02*
X56823931Y-41154873D01*
X58220931Y-39752391D02*
X58147661Y-39754309D01*
X88549279Y-50865076D02*
X88478008Y-50847966D01*
X57939113Y-58853714D02*
X58008932Y-58866228D01*
X56973527Y-40516793D02*
X56941972Y-40582947D01*
X88257840Y-92075594D02*
X88328567Y-92070207D01*
X89067984Y-84324367D02*
X89009835Y-84279748D01*
X89570789Y-79824373D02*
X89579749Y-79754009D01*
X89569709Y-74128363D02*
X89556352Y-74056295D01*
X56885148Y-91096479D02*
X56908089Y-91163598D01*
X84212574Y-69946757D02*
X88186931Y-69947391D01*
X89583931Y-90674873D02*
X89586948Y-85412372D01*
X57929856Y-50847983D02*
X57858587Y-50865094D01*
X56908089Y-57968598D02*
X56934400Y-58034468D01*
X89570789Y-90889373D02*
X89579749Y-90819009D01*
X56865636Y-57833284D02*
X56885148Y-57901479D01*
X89249198Y-69459304D02*
X89294023Y-69404331D01*
X57113852Y-80469319D02*
X57158676Y-80524292D01*
X56822850Y-63209103D02*
X56823931Y-63284873D01*
X89176886Y-62292422D02*
X89123719Y-62241969D01*
X88688648Y-61975360D02*
X88619556Y-61950893D01*
X89123719Y-62241969D02*
X89067984Y-62194367D01*
X88927486Y-80800489D02*
X88986712Y-80761455D01*
X89411022Y-91356803D02*
X89443862Y-91293931D01*
X89443862Y-47033931D02*
X89473477Y-46969476D01*
X66242949Y-50816716D02*
X58220931Y-50817391D01*
X57604381Y-80869298D02*
X57668834Y-80898913D01*
X57585349Y-73099979D02*
X57520936Y-73134952D01*
X88886934Y-73134936D02*
X88822521Y-73099963D01*
X88619556Y-84080893D02*
X88549279Y-84060076D01*
X88756365Y-62003408D02*
X88688648Y-61975360D01*
X56964014Y-47033922D02*
X56996855Y-47096793D01*
X56913923Y-51715662D02*
X56889456Y-51784753D01*
X57520936Y-84199952D02*
X57458441Y-84238248D01*
X88886934Y-51004936D02*
X88822521Y-50969963D01*
X88405940Y-61899609D02*
X88333271Y-61890042D01*
X88803487Y-69804315D02*
X88866358Y-69771473D01*
X88803487Y-47674315D02*
X88866358Y-47641473D01*
X88183931Y-72944873D02*
X84212574Y-72945587D01*
X57339888Y-62194381D02*
X57284154Y-62241982D01*
X58150021Y-47815576D02*
X66242949Y-47815546D01*
X56823931Y-41154873D02*
X56820949Y-46417372D01*
X57929856Y-61912983D02*
X57858587Y-61930094D01*
X58220931Y-61882391D02*
X58147661Y-61884309D01*
X56823931Y-74344873D02*
X56820949Y-79612372D01*
X89227340Y-84475588D02*
X89176886Y-84422422D01*
X57651504Y-50938425D02*
X57585349Y-50969979D01*
X89473477Y-46969476D02*
X89499788Y-46903605D01*
X89443862Y-58098931D02*
X89473477Y-58034476D01*
X88756365Y-39873408D02*
X88688648Y-39845360D01*
X56849603Y-79894188D02*
X56865636Y-79963284D01*
X89399376Y-62582371D02*
X89361078Y-62519876D01*
X57363986Y-69654457D02*
X57421159Y-69696440D01*
X88822521Y-84164963D02*
X88756365Y-84133408D01*
X89294023Y-91534331D02*
X89336006Y-91477157D01*
X57132933Y-84531334D02*
X57088313Y-84589482D01*
X89539240Y-73985025D02*
X89518422Y-73914747D01*
X89539240Y-51855025D02*
X89518422Y-51784747D01*
X57458441Y-73173248D02*
X57398037Y-73214762D01*
X57284154Y-62241982D02*
X57230987Y-62292435D01*
X89043885Y-80719472D02*
X89098858Y-80674647D01*
X57230987Y-62292435D02*
X57180534Y-62345601D01*
X88328567Y-69940207D02*
X88398931Y-69931246D01*
X88822521Y-62034963D02*
X88756365Y-62003408D01*
X57719219Y-50910376D02*
X57651504Y-50938425D01*
X57788310Y-73015910D02*
X57719219Y-73040376D01*
X57180534Y-73410601D02*
X57132933Y-73466334D01*
X88739033Y-91963930D02*
X88803487Y-91934315D01*
X56820949Y-68547372D02*
X56822744Y-68618280D01*
X89493955Y-73845656D02*
X89465905Y-73777940D01*
X89579749Y-68689009D02*
X89585134Y-68618282D01*
X58150021Y-69945576D02*
X66242949Y-69945546D01*
X89249198Y-47329304D02*
X89294023Y-47274331D01*
X88927486Y-91865489D02*
X88986712Y-91826455D01*
X58079295Y-81005189D02*
X58223931Y-81014873D01*
X89336006Y-91477157D02*
X89375039Y-91417930D01*
X56851527Y-85121299D02*
X56838169Y-85193366D01*
X69242949Y-84013304D02*
X69242949Y-81013960D01*
X56889456Y-40719753D02*
X56868638Y-40790029D01*
X88673162Y-91990242D02*
X88739033Y-91963930D01*
X57180534Y-62345601D02*
X57132933Y-62401334D01*
X57604381Y-91934298D02*
X57668834Y-91963913D01*
X57870018Y-47772680D02*
X57939113Y-47788714D01*
X88405940Y-84029609D02*
X88333271Y-84020042D01*
M02*
