M48
; DRILL file {KiCad (6.0.5)} date Thu Jun  2 02:11:43 2022
; FORMAT={-:-/ absolute / inch / decimal}
; #@! TF.CreationDate,2022-06-02T02:11:43+02:00
; #@! TF.GenerationSoftware,Kicad,Pcbnew,(6.0.5)
; #@! TF.FileFunction,Plated,1,2,PTH
FMAT,2
INCH
; #@! TA.AperFunction,Plated,PTH,ViaDrill
T1C0.0157
; #@! TA.AperFunction,Plated,PTH,ComponentDrill
T2C0.0236
; #@! TA.AperFunction,Plated,PTH,ComponentDrill
T3C0.0866
%
G90
G05
T1
X2.4874Y-1.7451
X2.4874Y-2.1807
X2.4874Y-2.6163
X2.4874Y-3.052
X2.4874Y-3.4876
X2.735Y-1.6018
X2.735Y-2.0374
X2.735Y-2.473
X2.735Y-2.9086
X2.735Y-3.3443
X2.7976Y-1.7446
X2.7976Y-2.1803
X2.7976Y-2.6159
X2.7976Y-3.0515
X2.7976Y-3.4872
X2.8579Y-1.707
X2.8579Y-2.1426
X2.8579Y-2.5783
X2.8579Y-3.0139
X2.8579Y-3.4495
X2.8945Y-1.7621
X2.8945Y-2.1977
X2.8945Y-2.6334
X2.8945Y-3.069
X2.8945Y-3.5046
X2.8949Y-1.859
X2.8949Y-2.2946
X2.8949Y-2.7302
X2.8949Y-3.1659
X2.8949Y-3.6015
X2.9102Y-1.5903
X2.9102Y-2.026
X2.9102Y-2.4616
X2.9102Y-2.8972
X2.9102Y-3.3329
X3.0356Y-1.6646
X3.0356Y-2.1002
X3.0356Y-2.5359
X3.0356Y-2.9715
X3.0356Y-3.4071
X3.0721Y-1.6649
X3.0721Y-2.1005
X3.0721Y-2.5361
X3.0721Y-2.9718
X3.0721Y-3.4074
X3.1087Y-1.6657
X3.1087Y-2.1013
X3.1087Y-2.5369
X3.1087Y-2.9725
X3.1087Y-3.4082
X3.1454Y-1.6658
X3.1454Y-2.1015
X3.1454Y-2.5371
X3.1454Y-2.9727
X3.1454Y-3.4084
X3.1827Y-1.6647
X3.1827Y-2.1003
X3.1827Y-2.5359
X3.1827Y-2.9716
X3.1827Y-3.4072
X3.3412Y-1.7533
X3.3412Y-2.1889
X3.3412Y-2.6245
X3.3412Y-3.0601
X3.3412Y-3.4958
X3.4157Y-1.6128
X3.4157Y-2.0484
X3.4157Y-2.484
X3.4157Y-2.9197
X3.4157Y-3.3553
T3
X2.317Y-1.7237
X2.317Y-2.1593
X2.317Y-2.595
X2.317Y-3.0306
X2.317Y-3.4662
X3.4542Y-1.7235
X3.4542Y-2.1592
X3.4542Y-2.5948
X3.4542Y-3.0304
X3.4542Y-3.4661
T2
G00X2.9312Y-2.9748
M15
G01X2.9312Y-2.9315
M16
G05
G00X2.9312Y-3.1295
M15
G01X2.9312Y-3.1059
M16
G05
G00X2.9316Y-1.6704
M15
G01X2.9316Y-1.6271
M16
G05
G00X2.9316Y-1.8251
M15
G01X2.9316Y-1.8015
M16
G05
G00X2.9316Y-2.106
M15
G01X2.9316Y-2.0627
M16
G05
G00X2.9316Y-2.2607
M15
G01X2.9316Y-2.2371
M16
G05
G00X2.9316Y-2.5416
M15
G01X2.9316Y-2.4983
M16
G05
G00X2.9316Y-2.6964
M15
G01X2.9316Y-2.6727
M16
G05
G00X2.9316Y-3.4129
M15
G01X2.9316Y-3.3696
M16
G05
G00X2.9316Y-3.5676
M15
G01X2.9316Y-3.544
M16
G05
G00X3.2714Y-2.9748
M15
G01X3.2714Y-2.9315
M16
G05
G00X3.2714Y-3.1295
M15
G01X3.2714Y-3.1059
M16
G05
G00X3.2717Y-1.6704
M15
G01X3.2717Y-1.6271
M16
G05
G00X3.2717Y-1.8251
M15
G01X3.2717Y-1.8015
M16
G05
G00X3.2717Y-2.106
M15
G01X3.2717Y-2.0627
M16
G05
G00X3.2717Y-2.2607
M15
G01X3.2717Y-2.2371
M16
G05
G00X3.2717Y-2.5416
M15
G01X3.2717Y-2.4983
M16
G05
G00X3.2717Y-2.6964
M15
G01X3.2717Y-2.6727
M16
G05
G00X3.2717Y-3.4129
M15
G01X3.2717Y-3.3696
M16
G05
G00X3.2717Y-3.5676
M15
G01X3.2717Y-3.544
M16
G05
T0
M30
